<svg width="1920" height="1080" viewBox="0 0 1920 1080" fill="none" xmlns="http://www.w3.org/2000/svg">
<rect width="1920" height="1080" fill="#1F1F1F"/>
<g clip-path="url(#clip0_220_63)">
<rect x="1309" y="722.534" width="200" height="200" transform="rotate(-14.0444 1309 722.534)" fill="#E4FEFC"/>
<path d="M1408.48 877.518C1399.51 886.014 1379.23 898.322 1351.26 900.649M1335.9 958.183C1358.78 960.966 1390.65 956.436 1423.04 930.702M1308.67 937.412C1326.96 946.995 1374.37 953.101 1430.76 906.319M1407.32 876.705C1398.47 884.981 1378.58 896.982 1351.14 899.265C1350.38 899.328 1349.81 900 1349.87 900.764C1349.94 901.529 1350.61 902.097 1351.37 902.033C1379.85 899.664 1400.51 887.071 1409.62 878.351C1411.96 880.107 1414.19 882.026 1416.27 884.098C1410.49 892.376 1403.16 898.569 1394.96 903.121C1394.29 903.493 1394.05 904.339 1394.42 905.009C1394.79 905.68 1395.64 905.922 1396.31 905.55C1404.69 900.897 1412.24 894.572 1418.24 886.135C1420.6 888.702 1422.77 891.478 1424.7 894.442C1414.22 904.65 1403.08 911.988 1391.91 917.133C1391.22 917.454 1390.91 918.279 1391.23 918.975C1391.55 919.672 1392.38 919.977 1393.07 919.656C1404.36 914.454 1415.61 907.072 1426.2 896.859C1427.71 899.433 1429.06 902.138 1430.22 904.961C1373.1 952.539 1325.52 945.254 1308.46 935.723C1308.03 931.629 1308 927.563 1308.35 923.569C1308.66 919.922 1309.3 916.336 1310.22 912.847C1315.32 914.145 1321.52 915.317 1328.39 916.096C1329.15 916.183 1329.84 915.635 1329.93 914.873C1330.01 914.111 1329.46 913.423 1328.7 913.336C1321.99 912.575 1315.95 911.433 1311 910.177C1312.16 906.471 1313.65 902.888 1315.46 899.472C1324.5 901.478 1333.1 902.373 1341.17 902.423C1341.93 902.428 1342.56 901.81 1342.56 901.043C1342.57 900.276 1341.95 899.65 1341.18 899.645C1333.55 899.598 1325.43 898.776 1316.87 896.937C1319.41 892.622 1322.45 888.607 1325.95 884.988C1335.86 886.234 1355.7 885.853 1374.63 877.95C1375.34 877.655 1375.67 876.841 1375.38 876.134C1375.08 875.426 1374.27 875.091 1373.56 875.387C1356.5 882.511 1338.62 883.339 1328.52 882.466C1336.08 875.475 1345.46 870.23 1356.16 867.554C1366.89 864.869 1377.66 865.093 1387.65 867.724C1386.25 868.702 1384.81 869.62 1383.36 870.482C1382.7 870.874 1382.48 871.726 1382.88 872.385C1383.27 873.045 1384.12 873.262 1384.78 872.871C1386.91 871.607 1389 870.225 1391.03 868.716C1396.83 870.592 1402.31 873.289 1407.32 876.705ZM1308.91 939.096C1328.34 948.682 1375.57 953.709 1431.27 907.7C1431.27 907.718 1431.28 907.736 1431.29 907.754C1431.97 909.684 1432.57 911.664 1433.08 913.692C1433.53 915.486 1433.89 917.281 1434.18 919.072C1432.06 921.124 1429.93 923.076 1427.8 924.931C1427.22 925.435 1427.16 926.312 1427.66 926.891C1428.17 927.469 1429.04 927.529 1429.62 927.025C1431.29 925.567 1432.97 924.052 1434.64 922.477C1435.42 929.895 1434.88 937.224 1433.16 944.19C1431.32 951.69 1428.12 958.768 1423.77 965.078C1418.01 970.346 1410.89 974.376 1403.16 977.419C1402.44 977.7 1402.09 978.506 1402.37 979.22C1402.66 979.933 1403.46 980.284 1404.18 980.004C1408.39 978.347 1412.45 976.395 1416.24 974.101C1408.41 981.893 1398.44 987.738 1386.94 990.614C1374.04 993.841 1361.07 992.867 1349.49 988.556C1361.69 988.882 1378.87 987.776 1395.03 983.101C1395.77 982.888 1396.19 982.118 1395.98 981.381C1395.77 980.644 1395 980.22 1394.26 980.433C1374.86 986.042 1353.89 986.41 1342.32 985.375C1335.56 981.86 1329.44 977.14 1324.3 971.421C1319.67 966.259 1315.84 960.283 1313.06 953.642C1316.24 955.039 1319.98 956.341 1324.19 957.416C1324.94 957.606 1325.69 957.157 1325.88 956.414C1326.07 955.67 1325.62 954.914 1324.88 954.724C1319.59 953.374 1315.11 951.665 1311.63 949.898C1311.02 948.132 1310.48 946.324 1310.02 944.476C1309.57 942.682 1309.2 940.887 1308.91 939.096ZM1423.9 931.789C1424.5 931.312 1424.6 930.438 1424.13 929.837C1423.65 929.237 1422.77 929.137 1422.17 929.614C1390.1 955.102 1358.61 959.546 1336.06 956.804C1335.3 956.712 1334.61 957.254 1334.52 958.016C1334.42 958.777 1334.97 959.469 1335.73 959.562C1358.96 962.387 1391.21 957.77 1423.9 931.789ZM1414.92 956.803C1415.61 956.471 1415.9 955.642 1415.57 954.95C1415.24 954.259 1414.41 953.967 1413.72 954.298C1405.53 958.222 1397.61 961.37 1390.06 963.871C1389.33 964.113 1388.94 964.899 1389.18 965.627C1389.42 966.355 1390.21 966.749 1390.93 966.508C1398.59 963.97 1406.62 960.779 1414.92 956.803ZM1350.66 916.985C1351.43 916.957 1352.03 916.314 1352 915.547C1351.97 914.78 1351.33 914.181 1350.56 914.209C1347.84 914.306 1345.15 914.321 1342.51 914.266C1341.74 914.25 1341.11 914.858 1341.09 915.625C1341.08 916.392 1341.69 917.027 1342.45 917.043C1345.14 917.099 1347.89 917.084 1350.66 916.985ZM1358.32 929.56C1359.07 929.464 1359.6 928.787 1359.52 928.035C1359.44 927.283 1358.78 926.733 1358.02 926.798L1348.06 927.654C1347.31 927.719 1346.74 928.374 1346.79 929.129C1346.84 929.883 1347.49 930.46 1348.24 930.425C1351.52 930.278 1354.89 929.996 1358.32 929.56Z" stroke="black" stroke-width="2.77778" stroke-linecap="round" stroke-linejoin="round"/>
<path d="M1523.11 629.129C1514.14 637.625 1493.86 649.933 1465.89 652.26M1450.53 709.794C1473.41 712.578 1505.28 708.047 1537.67 682.313M1423.3 689.023C1441.6 698.606 1489 704.713 1545.39 657.931M1521.95 628.316C1513.1 636.592 1493.21 648.594 1465.77 650.876C1465.01 650.94 1464.44 651.611 1464.5 652.375C1464.57 653.14 1465.24 653.708 1466 653.644C1494.48 651.275 1515.14 638.682 1524.25 629.963C1526.59 631.718 1528.82 633.638 1530.9 635.709C1525.12 643.988 1517.79 650.18 1509.59 654.732C1508.92 655.105 1508.68 655.95 1509.05 656.621C1509.42 657.291 1510.27 657.533 1510.94 657.161C1519.32 652.508 1526.87 646.184 1532.87 637.746C1535.23 640.313 1537.4 643.089 1539.33 646.053C1528.85 656.262 1517.71 663.599 1506.54 668.744C1505.85 669.065 1505.54 669.89 1505.86 670.587C1506.18 671.283 1507.01 671.588 1507.71 671.267C1518.99 666.066 1530.25 658.684 1540.83 648.47C1542.35 651.044 1543.69 653.749 1544.85 656.572C1487.73 704.15 1440.16 696.865 1423.09 687.334C1422.66 683.241 1422.63 679.174 1422.98 675.18C1423.29 671.534 1423.93 667.948 1424.85 664.458C1429.95 665.756 1436.15 666.928 1443.02 667.708C1443.78 667.794 1444.47 667.246 1444.56 666.484C1444.64 665.722 1444.1 665.034 1443.33 664.947C1436.62 664.186 1430.58 663.044 1425.63 661.788C1426.79 658.083 1428.28 654.499 1430.09 651.083C1439.13 653.089 1447.73 653.984 1455.8 654.034C1456.56 654.039 1457.19 653.421 1457.19 652.654C1457.2 651.887 1456.58 651.261 1455.81 651.257C1448.18 651.209 1440.06 650.387 1431.5 648.548C1434.04 644.234 1437.09 640.218 1440.58 636.599C1450.49 637.845 1470.33 637.464 1489.26 629.562C1489.97 629.266 1490.3 628.453 1490.01 627.745C1489.71 627.037 1488.9 626.703 1488.19 626.998C1471.13 634.122 1453.26 634.95 1443.15 634.078C1450.72 627.086 1460.09 621.842 1470.79 619.165C1481.52 616.481 1492.29 616.704 1502.28 619.336C1500.88 620.313 1499.44 621.231 1497.99 622.093C1497.33 622.485 1497.11 623.337 1497.51 623.997C1497.9 624.656 1498.75 624.874 1499.41 624.482C1501.54 623.218 1503.63 621.836 1505.66 620.328C1511.46 622.203 1516.94 624.9 1521.95 628.316ZM1423.54 690.707C1442.97 700.293 1490.2 705.32 1545.9 659.311C1545.9 659.329 1545.91 659.348 1545.92 659.366C1546.6 661.295 1547.2 663.275 1547.71 665.304C1548.16 667.097 1548.53 668.892 1548.81 670.684C1546.69 672.735 1544.56 674.687 1542.43 676.542C1541.85 677.046 1541.79 677.924 1542.29 678.502C1542.8 679.08 1543.68 679.14 1544.25 678.636C1545.93 677.179 1547.6 675.663 1549.27 674.088C1550.05 681.506 1549.51 688.836 1547.79 695.801C1545.95 703.301 1542.75 710.38 1538.4 716.689C1532.64 721.958 1525.52 725.987 1517.79 729.03C1517.08 729.311 1516.72 730.117 1517.01 730.831C1517.29 731.545 1518.09 731.896 1518.81 731.615C1523.02 729.959 1527.08 728.006 1530.87 725.712C1523.04 733.504 1513.07 739.349 1501.57 742.225C1488.67 745.453 1475.71 744.478 1464.12 740.167C1476.32 740.493 1493.5 739.387 1509.66 734.713C1510.4 734.5 1510.82 733.729 1510.61 732.993C1510.4 732.256 1509.63 731.831 1508.89 732.044C1489.49 737.653 1468.52 738.021 1456.95 736.987C1450.19 733.471 1444.07 728.752 1438.93 723.032C1434.3 717.87 1430.47 711.894 1427.69 705.253C1430.87 706.65 1434.61 707.952 1438.82 709.027C1439.57 709.217 1440.32 708.768 1440.51 708.025C1440.7 707.282 1440.25 706.525 1439.51 706.336C1434.22 704.985 1429.75 703.276 1426.26 701.509C1425.65 699.743 1425.11 697.935 1424.65 696.087C1424.2 694.293 1423.83 692.499 1423.54 690.707ZM1538.53 683.4C1539.13 682.923 1539.23 682.049 1538.76 681.449C1538.28 680.848 1537.41 680.748 1536.8 681.225C1504.73 706.713 1473.24 711.157 1450.69 708.416C1449.93 708.323 1449.24 708.865 1449.15 709.627C1449.06 710.388 1449.6 711.081 1450.36 711.173C1473.59 713.998 1505.84 709.381 1538.53 683.4ZM1529.55 708.414C1530.24 708.083 1530.53 707.253 1530.2 706.562C1529.87 705.87 1529.04 705.578 1528.35 705.91C1520.16 709.833 1512.24 712.981 1504.69 715.483C1503.96 715.724 1503.57 716.51 1503.81 717.238C1504.05 717.966 1504.84 718.361 1505.57 718.12C1513.22 715.582 1521.25 712.39 1529.55 708.414ZM1465.29 668.596C1466.06 668.569 1466.66 667.925 1466.63 667.158C1466.6 666.392 1465.96 665.793 1465.19 665.82C1462.47 665.917 1459.78 665.932 1457.14 665.877C1456.38 665.861 1455.74 666.47 1455.72 667.236C1455.71 668.003 1456.32 668.638 1457.08 668.654C1459.78 668.711 1462.52 668.695 1465.29 668.596ZM1472.95 681.171C1473.7 681.076 1474.24 680.398 1474.16 679.646C1474.08 678.894 1473.41 678.345 1472.66 678.409L1462.69 679.266C1461.94 679.33 1461.37 679.986 1461.42 680.74C1461.47 681.495 1462.12 682.071 1462.87 682.037C1466.15 681.889 1469.52 681.608 1472.95 681.171Z" stroke="black" stroke-width="2.77778" stroke-linecap="round" stroke-linejoin="round"/>
<path d="M1431.07 829.654C1430.61 830.297 1430.05 830.843 1429.4 831.292C1428.75 831.735 1428.03 832.054 1427.26 832.249C1426.66 832.398 1426.06 832.463 1425.47 832.444C1424.88 832.429 1424.31 832.342 1423.76 832.181C1423.21 832.014 1422.69 831.785 1422.19 831.493C1421.7 831.194 1421.25 830.841 1420.85 830.431C1420.44 830.016 1420.09 829.551 1419.8 829.035C1419.51 828.517 1419.29 827.96 1419.14 827.364C1418.99 826.767 1418.92 826.175 1418.93 825.587C1418.96 824.998 1419.05 824.428 1419.21 823.879C1419.37 823.323 1419.6 822.8 1419.89 822.308C1420.19 821.811 1420.55 821.362 1420.96 820.962C1421.37 820.561 1421.83 820.216 1422.34 819.926C1422.85 819.63 1423.41 819.406 1424.01 819.257C1424.78 819.063 1425.57 819.01 1426.35 819.099C1427.14 819.182 1427.89 819.399 1428.59 819.75L1427.83 822.272C1427.35 821.981 1426.84 821.79 1426.29 821.698C1425.73 821.6 1425.18 821.62 1424.63 821.757C1424.08 821.895 1423.59 822.129 1423.16 822.461C1422.73 822.792 1422.38 823.184 1422.11 823.637C1421.84 824.084 1421.66 824.577 1421.57 825.115C1421.48 825.647 1421.5 826.188 1421.64 826.738C1421.78 827.294 1422.01 827.788 1422.34 828.221C1422.68 828.653 1423.07 829.006 1423.52 829.277C1423.97 829.549 1424.47 829.731 1425 829.821C1425.54 829.91 1426.08 829.886 1426.63 829.749C1426.95 829.67 1427.24 829.555 1427.52 829.404C1427.8 829.253 1428.06 829.077 1428.3 828.875L1427.4 825.296L1429.83 824.689L1431.07 829.654ZM1440.96 823.452C1441.13 824.154 1441.17 824.841 1441.07 825.512C1440.97 826.177 1440.76 826.786 1440.44 827.339C1440.11 827.885 1439.69 828.361 1439.17 828.764C1438.66 829.161 1438.07 829.442 1437.4 829.609C1436.74 829.774 1436.08 829.804 1435.44 829.699C1434.79 829.587 1434.2 829.366 1433.65 829.037C1433.1 828.701 1432.63 828.263 1432.23 827.724C1431.83 827.178 1431.54 826.555 1431.36 825.853C1431.18 825.139 1431.14 824.447 1431.24 823.776C1431.34 823.105 1431.55 822.496 1431.88 821.949C1432.2 821.395 1432.62 820.92 1433.14 820.524C1433.66 820.126 1434.25 819.844 1434.91 819.679C1435.58 819.512 1436.23 819.476 1436.87 819.571C1437.52 819.659 1438.11 819.868 1438.65 820.198C1439.19 820.523 1439.67 820.961 1440.07 821.512C1440.47 822.057 1440.77 822.704 1440.96 823.452ZM1438.54 824.056C1438.45 823.67 1438.3 823.338 1438.09 823.06C1437.89 822.775 1437.65 822.549 1437.38 822.38C1437.11 822.207 1436.81 822.098 1436.49 822.054C1436.17 822.003 1435.85 822.018 1435.52 822.1C1435.19 822.182 1434.9 822.321 1434.64 822.517C1434.38 822.705 1434.17 822.941 1434.01 823.223C1433.86 823.498 1433.76 823.809 1433.71 824.155C1433.67 824.496 1433.69 824.859 1433.79 825.245C1433.88 825.608 1434.03 825.929 1434.23 826.208C1434.43 826.487 1434.66 826.714 1434.93 826.89C1435.2 827.064 1435.5 827.182 1435.82 827.245C1436.14 827.3 1436.47 827.287 1436.8 827.205C1437.12 827.123 1437.42 826.985 1437.67 826.791C1437.93 826.595 1438.15 826.359 1438.31 826.082C1438.47 825.806 1438.57 825.494 1438.61 825.148C1438.66 824.8 1438.64 824.436 1438.54 824.056ZM1445.89 827.298L1443.48 827.902L1440.19 814.77L1442.61 814.167L1445.89 827.298ZM1456.8 824.569L1456.22 824.713L1454.97 823.657C1454.79 823.918 1454.6 824.172 1454.39 824.418C1454.18 824.656 1453.95 824.877 1453.71 825.082C1453.46 825.281 1453.19 825.456 1452.91 825.606C1452.64 825.756 1452.35 825.868 1452.05 825.944C1451.39 826.11 1450.73 826.143 1450.09 826.043C1449.45 825.937 1448.85 825.719 1448.3 825.39C1447.76 825.054 1447.29 824.616 1446.88 824.077C1446.48 823.531 1446.19 822.902 1446.01 822.188C1445.83 821.481 1445.79 820.791 1445.89 820.12C1445.99 819.449 1446.2 818.837 1446.52 818.285C1446.85 817.731 1447.27 817.255 1447.79 816.859C1448.31 816.461 1448.9 816.18 1449.56 816.014C1449.77 815.962 1450 815.925 1450.23 815.905C1450.46 815.883 1450.7 815.886 1450.93 815.916C1451.16 815.937 1451.39 815.989 1451.61 816.071C1451.83 816.153 1452.03 816.271 1452.2 816.426L1451.11 812.04L1453.52 811.437L1456.8 824.569ZM1453.19 820.391C1453.11 820.064 1452.97 819.764 1452.76 819.492C1452.56 819.213 1452.33 818.983 1452.05 818.804C1451.77 818.618 1451.47 818.492 1451.15 818.424C1450.82 818.35 1450.5 818.354 1450.17 818.436C1449.84 818.517 1449.55 818.653 1449.28 818.844C1449.03 819.032 1448.82 819.265 1448.66 819.541C1448.5 819.81 1448.4 820.118 1448.36 820.464C1448.31 820.811 1448.34 821.183 1448.44 821.581C1448.53 821.926 1448.67 822.238 1448.87 822.517C1449.07 822.796 1449.3 823.026 1449.57 823.208C1449.85 823.388 1450.15 823.509 1450.47 823.572C1450.79 823.633 1451.12 823.623 1451.45 823.541C1451.77 823.459 1452.06 823.312 1452.31 823.1C1452.57 822.881 1452.78 822.627 1452.94 822.339C1453.09 822.045 1453.19 821.731 1453.24 821.396C1453.29 821.054 1453.28 820.719 1453.19 820.391Z" fill="#5B3BE3"/>
<path d="M1421.66 789.426L1420.09 783.132C1419.87 782.269 1419.5 781.5 1418.97 780.824C1418.46 780.13 1417.84 779.569 1417.13 779.141C1416.42 778.713 1415.63 778.436 1414.78 778.308C1413.93 778.162 1413.08 778.197 1412.22 778.413C1411.36 778.628 1410.58 779.001 1409.89 779.531C1409.21 780.043 1408.66 780.655 1408.23 781.368C1407.8 782.081 1407.52 782.867 1407.37 783.726C1407.24 784.567 1407.28 785.418 1407.5 786.281L1409.07 792.575L1421.66 789.426ZM1431.1 800.417L1424.8 801.992L1423.23 795.698L1410.64 798.847L1412.22 805.141L1405.95 806.709L1401.23 787.85C1400.79 786.11 1400.71 784.398 1400.99 782.713C1401.26 781.013 1401.82 779.452 1402.66 778.03C1403.52 776.604 1404.62 775.373 1405.98 774.334C1407.35 773.292 1408.9 772.554 1410.64 772.119C1412.38 771.683 1414.1 771.605 1415.78 771.882C1417.48 772.156 1419.04 772.721 1420.47 773.576C1421.9 774.431 1423.13 775.544 1424.17 776.914C1425.21 778.27 1425.95 779.818 1426.38 781.558L1431.1 800.417ZM1452.28 792.207C1451.9 792.766 1451.49 793.313 1451.03 793.846C1450.59 794.362 1450.1 794.841 1449.57 795.283C1449.04 795.711 1448.48 796.085 1447.88 796.407C1447.29 796.74 1446.67 796.988 1446.01 797.153C1444.56 797.515 1443.14 797.599 1441.74 797.406C1440.34 797.212 1439.04 796.768 1437.84 796.074C1436.65 795.361 1435.61 794.402 1434.72 793.196C1433.84 791.972 1433.19 790.519 1432.77 788.838L1429.52 775.855L1435.49 774.363L1438.73 787.346C1438.93 788.135 1439.23 788.815 1439.62 789.385C1440.02 789.937 1440.48 790.374 1440.99 790.695C1441.51 791.017 1442.06 791.219 1442.66 791.303C1443.27 791.384 1443.89 791.345 1444.52 791.188C1445.13 791.034 1445.68 790.751 1446.15 790.338C1446.63 789.907 1447.02 789.406 1447.31 788.836C1447.6 788.265 1447.79 787.659 1447.88 787.015C1447.96 786.357 1447.93 785.714 1447.77 785.085L1444.52 772.103L1450.51 770.605L1456.38 794.092L1454.94 794.454L1452.28 792.207Z" fill="black"/>
<path d="M1329.12 728.683L1328.02 741.791L1325.43 742.438L1326.41 731.93L1321.27 733.215L1320.67 730.798L1329.12 728.683ZM1340.25 730.616C1340.44 731.391 1340.55 732.169 1340.58 732.949C1340.61 733.722 1340.56 734.474 1340.44 735.204C1340.31 735.934 1340.1 736.629 1339.82 737.29C1339.54 737.952 1339.18 738.557 1338.75 739.105L1335.5 739.921C1335.78 739.616 1336.05 739.289 1336.31 738.939C1336.56 738.59 1336.79 738.225 1337 737.845C1337.21 737.463 1337.4 737.07 1337.56 736.665C1337.72 736.261 1337.85 735.853 1337.95 735.44C1337.75 735.665 1337.52 735.871 1337.27 736.059C1337.02 736.242 1336.74 736.37 1336.44 736.445C1335.76 736.616 1335.11 736.657 1334.51 736.569C1333.91 736.475 1333.37 736.274 1332.88 735.967C1332.39 735.653 1331.98 735.241 1331.63 734.731C1331.29 734.221 1331.03 733.631 1330.87 732.963C1330.7 732.312 1330.66 731.668 1330.75 731.033C1330.84 730.39 1331.03 729.801 1331.34 729.266C1331.64 728.726 1332.04 728.259 1332.53 727.866C1333.03 727.473 1333.61 727.194 1334.27 727.03C1334.93 726.864 1335.58 726.835 1336.22 726.943C1336.87 727.05 1337.46 727.268 1338.01 727.598C1338.55 727.922 1339.01 728.345 1339.41 728.867C1339.8 729.382 1340.08 729.965 1340.25 730.616ZM1337.66 731.263C1337.58 730.954 1337.46 730.67 1337.28 730.411C1337.1 730.151 1336.88 729.936 1336.63 729.766C1336.39 729.595 1336.11 729.479 1335.81 729.417C1335.51 729.355 1335.2 729.365 1334.87 729.447C1334.54 729.529 1334.26 729.669 1334.02 729.866C1333.79 730.055 1333.6 730.281 1333.46 730.542C1333.33 730.803 1333.24 731.089 1333.21 731.401C1333.18 731.712 1333.21 732.031 1333.29 732.356C1333.37 732.676 1333.5 732.967 1333.67 733.228C1333.84 733.483 1334.05 733.694 1334.29 733.859C1334.54 734.025 1334.81 734.137 1335.1 734.194C1335.4 734.25 1335.72 734.237 1336.05 734.154C1336.38 734.071 1336.66 733.934 1336.9 733.743C1337.15 733.551 1337.34 733.324 1337.48 733.063C1337.61 732.802 1337.7 732.519 1337.73 732.213C1337.76 731.9 1337.74 731.583 1337.66 731.263Z" fill="black"/>
</g>
<g clip-path="url(#clip1_220_63)">
<rect x="372.95" y="651" width="210" height="210" transform="rotate(8.19936 372.95 651)" fill="#E4FEFC"/>
<path d="M408.029 841.165C395.936 845.857 371.329 849.756 343.222 840.9M305.426 890.71C326.562 902.512 359.335 910.776 401.039 898.639M287.218 859.7C301.193 876.286 344.838 901.064 418.23 878.01M407.222 839.913C395.335 844.439 371.23 848.195 343.66 839.509C342.892 839.267 342.073 839.694 341.831 840.462C341.589 841.23 342.015 842.049 342.784 842.291C371.401 851.307 396.49 847.282 408.805 842.427C410.384 845.065 411.783 847.815 412.988 850.658C404.081 856.406 394.489 859.508 384.711 860.673C383.912 860.768 383.34 861.494 383.436 862.294C383.531 863.093 384.257 863.664 385.056 863.569C395.05 862.378 404.904 859.234 414.087 853.417C415.366 856.853 416.367 860.411 417.066 864.06C402.825 869.816 389.078 872.517 376.182 873.08C375.378 873.115 374.754 873.796 374.789 874.601C374.824 875.405 375.505 876.029 376.309 875.994C389.346 875.425 403.217 872.724 417.561 867.004C418.012 870.109 418.245 873.272 418.247 876.476C343.829 900.014 300.485 874.023 287.692 857.978C288.895 853.826 290.483 849.862 292.408 846.119C294.167 842.702 296.208 839.468 298.496 836.445C302.934 839.733 308.493 843.336 314.859 846.824C315.565 847.211 316.451 846.952 316.838 846.245C317.225 845.539 316.966 844.653 316.26 844.266C310.039 840.858 304.62 837.347 300.308 834.158C302.909 831.018 305.788 828.13 308.9 825.528C316.893 831.072 324.888 835.357 332.71 838.613C333.453 838.923 334.307 838.571 334.617 837.828C334.926 837.084 334.574 836.23 333.831 835.921C326.431 832.84 318.862 828.812 311.282 823.626C315.463 820.442 320.017 817.749 324.85 815.62C333.988 820.771 353.425 828.288 374.961 828.131C375.767 828.125 376.415 827.468 376.409 826.662C376.403 825.857 375.745 825.209 374.94 825.215C355.527 825.356 337.826 819.056 328.356 814.193C338.483 810.404 349.679 809.033 361.139 810.685C372.637 812.341 383.019 816.841 391.681 823.369C389.925 823.759 388.168 824.082 386.414 824.343C385.617 824.461 385.067 825.203 385.185 826C385.304 826.796 386.045 827.346 386.842 827.228C389.414 826.846 391.995 826.334 394.573 825.677C399.456 829.802 403.715 834.603 407.222 839.913ZM286.79 861.435C301.862 878.474 345.765 902.132 418.178 879.554C418.177 879.575 418.176 879.595 418.175 879.615C418.075 881.763 417.871 883.926 417.558 886.099C417.281 888.02 416.925 889.911 416.493 891.766C413.609 892.915 410.764 893.965 407.958 894.922C407.196 895.182 406.789 896.011 407.049 896.773C407.309 897.536 408.137 897.943 408.9 897.683C411.104 896.931 413.332 896.123 415.581 895.256C413.397 902.778 409.952 909.684 405.518 915.772C400.743 922.327 394.82 927.935 388.089 932.34C380.395 935.17 371.874 936.256 363.15 936.14C362.345 936.129 361.683 936.773 361.672 937.578C361.662 938.384 362.306 939.045 363.111 939.056C367.86 939.12 372.586 938.837 377.186 938.116C366.475 942.575 354.461 944.292 342.143 942.517C328.322 940.526 316.11 934.426 306.561 925.63C318.287 930.796 335.424 936.55 352.992 938.432C353.793 938.517 354.512 937.938 354.597 937.137C354.683 936.336 354.103 935.617 353.303 935.532C332.224 933.273 311.697 925.296 300.862 919.691C295.686 913.586 291.614 906.567 288.898 898.968C286.446 892.109 285.098 884.778 285.037 877.22C287.574 879.842 290.691 882.594 294.357 885.313C295.004 885.793 295.917 885.657 296.397 885.01C296.877 884.363 296.741 883.45 296.094 882.97C291.489 879.555 287.82 876.115 285.137 873.013C285.245 871.054 285.44 869.083 285.725 867.103C286.002 865.181 286.358 863.291 286.79 861.435ZM401.446 900.039C402.22 899.814 402.664 899.004 402.439 898.231C402.214 897.458 401.405 897.013 400.631 897.238C359.327 909.26 326.956 901.061 306.137 889.437C305.433 889.044 304.545 889.296 304.152 889.999C303.76 890.702 304.011 891.591 304.715 891.983C326.169 903.962 359.343 912.293 401.446 900.039ZM382.771 920.777C383.575 920.73 384.188 920.04 384.141 919.236C384.093 918.432 383.403 917.818 382.599 917.866C373.086 918.426 364.136 918.337 355.806 917.768C355.002 917.713 354.306 918.32 354.251 919.123C354.196 919.927 354.803 920.623 355.607 920.677C364.059 921.255 373.132 921.345 382.771 920.777ZM336.152 856.541C336.908 856.819 337.747 856.431 338.025 855.675C338.303 854.919 337.915 854.081 337.159 853.803C334.477 852.817 331.857 851.762 329.311 850.658C328.572 850.337 327.713 850.677 327.393 851.416C327.072 852.155 327.412 853.013 328.15 853.334C330.744 854.459 333.416 855.534 336.152 856.541ZM338.594 871.805C339.361 872.01 340.151 871.564 340.372 870.802C340.593 870.039 340.164 869.24 339.406 869.004L329.382 865.875C328.624 865.639 327.816 866.052 327.565 866.805C327.313 867.558 327.709 868.374 328.457 868.641C331.701 869.8 335.084 870.865 338.594 871.805Z" stroke="black" stroke-width="2.91667" stroke-linecap="round" stroke-linejoin="round"/>
<path d="M618.163 645.325C606.07 650.017 581.463 653.916 553.356 645.06M515.559 694.87C536.696 706.672 569.469 714.936 611.173 702.799M497.352 663.86C511.327 680.447 554.971 705.224 628.364 682.17M617.356 644.073C605.469 648.599 581.364 652.355 553.794 643.669C553.026 643.427 552.207 643.854 551.965 644.622C551.723 645.39 552.149 646.209 552.917 646.451C581.535 655.467 606.624 651.443 618.938 646.587C620.517 649.225 621.917 651.975 623.122 654.818C614.215 660.566 604.623 663.668 594.845 664.833C594.045 664.928 593.474 665.654 593.57 666.454C593.665 667.254 594.39 667.825 595.19 667.729C605.184 666.538 615.038 663.394 624.22 657.577C625.5 661.013 626.5 664.571 627.2 668.22C612.959 673.976 599.211 676.678 586.316 677.24C585.511 677.275 584.888 677.956 584.923 678.761C584.958 679.565 585.639 680.189 586.443 680.154C599.48 679.585 613.35 676.884 627.695 671.164C628.146 674.269 628.379 677.432 628.381 680.636C553.963 704.174 510.619 678.183 497.826 662.138C499.029 657.986 500.616 654.022 502.542 650.28C504.301 646.862 506.341 643.629 508.63 640.606C513.068 643.893 518.626 647.496 524.993 650.984C525.699 651.371 526.585 651.112 526.972 650.406C527.359 649.699 527.1 648.813 526.394 648.426C520.173 645.018 514.754 641.507 510.442 638.318C513.043 635.178 515.922 632.291 519.034 629.688C527.026 635.232 535.022 639.517 542.844 642.774C543.587 643.083 544.441 642.731 544.75 641.988C545.06 641.244 544.708 640.39 543.965 640.081C536.565 637 528.996 632.973 521.416 627.787C525.596 624.602 530.151 621.909 534.984 619.78C544.122 624.931 563.559 632.449 585.095 632.291C585.9 632.285 586.549 631.628 586.543 630.822C586.537 630.017 585.879 629.369 585.074 629.375C565.66 629.516 547.96 623.216 538.49 618.354C548.617 614.565 559.812 613.193 571.273 614.845C582.77 616.501 593.153 621.001 601.815 627.529C600.059 627.919 598.302 628.242 596.547 628.503C595.751 628.621 595.201 629.363 595.319 630.16C595.437 630.956 596.179 631.506 596.976 631.388C599.548 631.006 602.129 630.494 604.707 629.837C609.59 633.962 613.848 638.763 617.356 644.073ZM496.924 665.595C511.995 682.634 555.899 706.292 628.312 683.715C628.311 683.735 628.31 683.755 628.309 683.775C628.209 685.923 628.005 688.086 627.691 690.259C627.415 692.181 627.058 694.071 626.627 695.927C623.743 697.075 620.898 698.125 618.092 699.082C617.33 699.342 616.922 700.171 617.182 700.933C617.442 701.696 618.271 702.103 619.033 701.843C621.238 701.091 623.465 700.283 625.715 699.416C623.531 706.938 620.086 713.844 615.652 719.932C610.877 726.487 604.954 732.095 598.223 736.5C590.529 739.33 582.008 740.416 573.284 740.3C572.478 740.289 571.817 740.933 571.806 741.739C571.795 742.544 572.439 743.205 573.245 743.216C577.994 743.28 582.72 742.998 587.319 742.276C576.609 746.736 564.595 748.453 552.277 746.678C538.456 744.686 526.244 738.586 516.695 729.79C528.421 734.956 545.558 740.71 563.126 742.592C563.927 742.678 564.645 742.098 564.731 741.297C564.817 740.496 564.237 739.778 563.436 739.692C542.357 737.433 521.831 729.456 510.996 723.851C505.819 717.747 501.748 710.727 499.032 703.128C496.58 696.269 495.232 688.939 495.171 681.38C497.708 684.002 500.825 686.754 504.491 689.473C505.138 689.953 506.051 689.817 506.531 689.17C507.011 688.523 506.875 687.61 506.228 687.13C501.623 683.715 497.954 680.275 495.27 677.173C495.378 675.214 495.573 673.243 495.859 671.263C496.135 669.342 496.492 667.451 496.924 665.595ZM611.58 704.199C612.354 703.974 612.798 703.165 612.573 702.391C612.348 701.618 611.539 701.173 610.765 701.399C569.461 713.42 537.089 705.221 516.27 693.597C515.567 693.204 514.679 693.456 514.286 694.159C513.893 694.863 514.145 695.751 514.848 696.144C536.303 708.123 569.477 716.453 611.58 704.199ZM592.905 724.938C593.709 724.89 594.322 724.2 594.275 723.396C594.227 722.592 593.537 721.979 592.733 722.026C583.22 722.586 574.27 722.497 565.939 721.928C565.136 721.873 564.44 722.48 564.385 723.283C564.33 724.087 564.937 724.783 565.741 724.838C574.193 725.415 583.266 725.505 592.905 724.938ZM546.286 660.701C547.042 660.979 547.88 660.591 548.158 659.835C548.436 659.08 548.049 658.241 547.293 657.963C544.611 656.977 541.99 655.922 539.445 654.818C538.706 654.498 537.847 654.837 537.527 655.576C537.206 656.315 537.545 657.173 538.284 657.494C540.878 658.619 543.55 659.694 546.286 660.701ZM548.728 675.965C549.495 676.17 550.285 675.724 550.506 674.962C550.727 674.2 550.298 673.4 549.54 673.164L539.516 670.035C538.758 669.799 537.95 670.212 537.698 670.965C537.446 671.718 537.843 672.534 538.591 672.801C541.835 673.96 545.218 675.025 548.728 675.965Z" stroke="black" stroke-width="2.91667" stroke-linecap="round" stroke-linejoin="round"/>
<path d="M429.993 802.377L427.108 801.962L423.19 792.342L421.912 801.213L419.215 800.824L421.156 787.348L424.041 787.764L427.958 797.393L429.238 788.513L431.935 788.902L429.993 802.377ZM437.1 790.336C437.066 790.575 436.987 790.79 436.863 790.983C436.745 791.177 436.597 791.342 436.418 791.476C436.24 791.603 436.037 791.699 435.811 791.762C435.591 791.82 435.363 791.832 435.125 791.798C434.886 791.763 434.667 791.687 434.467 791.569C434.274 791.445 434.11 791.296 433.975 791.124C433.847 790.945 433.751 790.746 433.687 790.526C433.629 790.306 433.617 790.078 433.651 789.84C433.685 789.608 433.76 789.395 433.878 789.201C434.002 789.001 434.151 788.837 434.323 788.708C434.502 788.574 434.701 788.478 434.92 788.42C435.147 788.357 435.379 788.343 435.617 788.377C435.855 788.411 436.071 788.49 436.264 788.614C436.465 788.733 436.632 788.881 436.766 789.061C436.901 789.233 436.997 789.433 437.054 789.658C437.118 789.879 437.133 790.105 437.1 790.336ZM434.814 803.072L432.23 802.7L433.68 792.635L436.264 793.007L434.814 803.072ZM441.825 804.082C441.204 803.993 440.638 803.793 440.127 803.483C439.616 803.166 439.183 802.774 438.828 802.307C438.481 801.835 438.227 801.31 438.068 800.73C437.914 800.152 437.882 799.552 437.972 798.932L438.402 795.944L437.153 795.764L437.521 793.208L438.771 793.388L439.35 789.366L441.906 789.734L441.327 793.756L445.217 794.317L444.849 796.873L440.959 796.312L440.528 799.3C440.489 799.57 440.503 799.831 440.569 800.083C440.635 800.33 440.744 800.553 440.894 800.754C441.044 800.954 441.231 801.125 441.453 801.266C441.677 801.401 441.923 801.487 442.193 801.526L444.138 801.806L443.77 804.362L441.825 804.082ZM447.782 804.941L445.217 804.571L446.667 794.506L447.287 794.596L447.961 795.911C448.429 795.595 448.94 795.374 449.495 795.25C450.051 795.119 450.611 795.094 451.175 795.175L453.44 795.501L453.072 798.058L450.807 797.731C450.537 797.692 450.277 797.706 450.024 797.772C449.772 797.838 449.545 797.946 449.344 798.096C449.144 798.246 448.976 798.433 448.841 798.657C448.707 798.88 448.62 799.127 448.581 799.396L447.782 804.941ZM463.462 801.972C463.354 802.724 463.118 803.406 462.755 804.019C462.392 804.625 461.945 805.133 461.413 805.542C460.882 805.946 460.283 806.24 459.617 806.425C458.958 806.605 458.271 806.644 457.557 806.541C456.849 806.439 456.201 806.208 455.613 805.848C455.033 805.483 454.542 805.032 454.139 804.494C453.744 803.951 453.459 803.338 453.282 802.654C453.107 801.964 453.073 801.242 453.181 800.491C453.292 799.726 453.528 799.038 453.892 798.425C454.255 797.812 454.702 797.304 455.233 796.901C455.772 796.493 456.371 796.199 457.03 796.019C457.695 795.84 458.382 795.801 459.09 795.903C459.804 796.006 460.452 796.231 461.036 796.577C461.626 796.918 462.119 797.356 462.515 797.893C462.912 798.423 463.198 799.037 463.372 799.734C463.548 800.424 463.578 801.17 463.462 801.972ZM460.878 801.6C460.937 801.186 460.922 800.803 460.832 800.452C460.749 800.094 460.609 799.78 460.412 799.508C460.215 799.231 459.969 799.007 459.674 798.836C459.386 798.66 459.067 798.547 458.716 798.497C458.365 798.446 458.023 798.464 457.691 798.551C457.366 798.632 457.07 798.778 456.803 798.989C456.543 799.194 456.323 799.457 456.143 799.776C455.964 800.089 455.844 800.452 455.785 800.866C455.729 801.254 455.742 801.624 455.826 801.975C455.91 802.326 456.047 802.64 456.237 802.917C456.434 803.194 456.675 803.427 456.961 803.616C457.255 803.799 457.577 803.915 457.928 803.966C458.279 804.016 458.617 803.998 458.943 803.911C459.275 803.824 459.574 803.679 459.84 803.474C460.106 803.269 460.33 803.007 460.51 802.688C460.697 802.37 460.819 802.007 460.878 801.6ZM472.042 803.208C472.092 802.857 472.072 802.509 471.981 802.164C471.898 801.813 471.758 801.495 471.562 801.211C471.367 800.921 471.124 800.678 470.833 800.482C470.548 800.282 470.231 800.156 469.88 800.105C469.529 800.055 469.188 800.066 468.858 800.14C468.534 800.215 468.239 800.352 467.974 800.55C467.715 800.749 467.495 801.012 467.314 801.338C467.133 801.657 467.012 802.036 466.949 802.474C466.888 802.894 466.899 803.283 466.982 803.64C467.066 803.991 467.203 804.302 467.394 804.572C467.592 804.844 467.835 805.067 468.123 805.243C468.418 805.414 468.741 805.524 469.092 805.575C469.443 805.625 469.782 805.597 470.111 805.491C470.447 805.38 470.749 805.215 471.017 804.998C471.285 804.775 471.509 804.51 471.688 804.203C471.873 803.891 471.991 803.559 472.042 803.208ZM474.071 807.434C473.969 808.141 473.739 808.786 473.38 809.368C473.021 809.949 472.573 810.438 472.037 810.833C471.506 811.23 470.908 811.518 470.243 811.697C469.584 811.877 468.901 811.916 468.193 811.814L466.908 811.61L467.278 809.045L468.544 809.246C468.944 809.304 469.294 809.3 469.591 809.234C469.887 809.174 470.146 809.068 470.366 808.914C470.585 808.767 470.768 808.585 470.914 808.37C471.067 808.155 471.196 807.924 471.302 807.677C471.178 807.826 471.015 807.94 470.812 808.019C470.609 808.092 470.388 808.143 470.147 808.173C469.911 808.209 469.666 808.222 469.412 808.211C469.164 808.201 468.934 808.18 468.721 808.149C468.013 808.047 467.363 807.829 466.772 807.495C466.187 807.161 465.692 806.735 465.287 806.216C464.889 805.692 464.603 805.081 464.429 804.385C464.254 803.688 464.226 802.926 464.345 802.099C464.455 801.341 464.691 800.656 465.054 800.043C465.417 799.43 465.865 798.919 466.397 798.51C466.936 798.102 467.535 797.807 468.194 797.627C468.859 797.448 469.546 797.41 470.254 797.512C470.579 797.559 470.896 797.646 471.204 797.773C471.512 797.901 471.806 798.058 472.085 798.246C472.365 798.433 472.626 798.643 472.867 798.876C473.115 799.11 473.342 799.357 473.547 799.617L474.715 798.567L475.336 798.656L474.071 807.434ZM480.21 807.1C480.306 807.146 480.403 807.182 480.501 807.209C480.601 807.23 480.701 807.247 480.801 807.262C481.051 807.298 481.298 807.298 481.539 807.263C481.781 807.227 482.011 807.161 482.23 807.065C482.455 806.963 482.66 806.833 482.842 806.673C483.032 806.509 483.194 806.321 483.326 806.11L484.934 808.27C484.647 808.574 484.328 808.838 483.975 809.062C483.63 809.287 483.262 809.468 482.871 809.603C482.487 809.74 482.088 809.826 481.673 809.862C481.264 809.906 480.85 809.897 480.43 809.837C479.722 809.735 479.074 809.507 478.485 809.154C477.903 808.801 477.41 808.356 477.008 807.818C476.612 807.282 476.326 806.671 476.15 805.987C475.974 805.297 475.943 804.563 476.055 803.786C476.169 802.991 476.409 802.283 476.773 801.665C477.137 801.046 477.584 800.538 478.115 800.141C478.651 799.745 479.248 799.463 479.905 799.296C480.569 799.129 481.255 799.097 481.963 799.199C482.382 799.259 482.785 799.369 483.172 799.527C483.558 799.685 483.917 799.883 484.247 800.123C484.583 800.363 484.888 800.644 485.161 800.964C485.436 801.279 485.668 801.622 485.857 801.995L480.21 807.1ZM482.288 801.999C482.175 801.938 482.06 801.892 481.943 801.863C481.832 801.834 481.714 801.811 481.589 801.793C481.238 801.742 480.897 801.76 480.564 801.846C480.239 801.927 479.944 802.07 479.678 802.275C479.418 802.48 479.198 802.743 479.017 803.062C478.838 803.375 478.718 803.742 478.658 804.162C478.644 804.256 478.632 804.362 478.621 804.482C478.616 804.603 478.614 804.728 478.615 804.856C478.623 804.978 478.635 805.098 478.65 805.216C478.665 805.333 478.691 805.439 478.728 805.534L482.288 801.999ZM488.529 810.812L485.964 810.442L487.414 800.378L488.034 800.467L488.739 801.566C489.207 801.25 489.715 801.029 490.264 800.903C490.82 800.772 491.383 800.748 491.953 800.83C492.567 800.919 493.129 801.121 493.64 801.438C494.152 801.748 494.581 802.139 494.929 802.612C495.278 803.077 495.528 803.603 495.68 804.187C495.84 804.767 495.875 805.367 495.786 805.987L494.957 811.738L492.391 811.368L493.22 805.617C493.258 805.354 493.244 805.099 493.177 804.853C493.111 804.601 493.003 804.374 492.853 804.173C492.703 803.973 492.519 803.805 492.301 803.672C492.084 803.538 491.844 803.452 491.581 803.414C491.311 803.376 491.05 803.389 490.798 803.455C490.545 803.521 490.319 803.629 490.118 803.779C489.917 803.929 489.75 804.116 489.615 804.34C489.482 804.557 489.396 804.798 489.358 805.061L488.529 810.812Z" fill="#2662E7"/>
<path d="M473.765 777.87L466.553 776.83L456.757 752.781L453.561 774.958L446.819 773.987L451.673 740.298L458.885 741.337L468.678 765.41L471.877 743.209L478.62 744.18L473.765 777.87Z" fill="black"/>
<path d="M390.042 665.123L383.757 677.423L380.987 677.024L386.114 667.2L380.611 666.407L380.984 663.818L390.042 665.123Z" fill="black"/>
</g>
<g clip-path="url(#clip2_220_63)">
<rect x="1603.44" y="170" width="300" height="300" transform="rotate(18.3485 1603.44 170)" fill="#E4FEFC"/>
<path d="M1604.89 446.243C1586.71 449.798 1551.12 449.085 1513.83 429.557M1448.14 490.086C1474.89 512.003 1518.9 531.874 1580.6 525.304M1430.34 441.896C1445.82 468.738 1500.95 514.567 1609.96 500.623M1604.07 444.279C1586.22 447.652 1551.38 446.866 1514.79 427.711C1513.77 427.178 1512.52 427.571 1511.98 428.591C1511.45 429.61 1511.84 430.869 1512.86 431.403C1550.83 451.285 1587.13 451.941 1605.67 448.214C1607.22 452.32 1608.5 456.539 1609.48 460.841C1595.51 466.682 1581.24 468.629 1567.19 467.806C1566.04 467.739 1565.06 468.615 1564.99 469.764C1564.92 470.913 1565.8 471.898 1566.95 471.966C1581.3 472.807 1595.95 470.865 1610.33 464.998C1611.26 470.151 1611.77 475.406 1611.84 480.713C1590.36 485.223 1570.35 485.561 1552.08 483.106C1550.94 482.953 1549.89 483.753 1549.73 484.894C1549.58 486.034 1550.38 487.083 1551.52 487.236C1570 489.718 1590.18 489.41 1611.79 484.978C1611.65 489.458 1611.18 493.965 1610.37 498.47C1499.8 512.836 1445.39 465.377 1431.44 439.594C1434.18 434.058 1437.41 428.883 1441.06 424.105C1444.39 419.742 1448.08 415.709 1452.05 412.034C1457.47 417.774 1464.38 424.24 1472.45 430.747C1473.35 431.469 1474.66 431.328 1475.38 430.432C1476.1 429.536 1475.96 428.225 1475.07 427.503C1467.18 421.145 1460.44 414.843 1455.18 409.273C1459.63 405.513 1464.4 402.177 1469.43 399.3C1479.28 409.109 1489.44 417.147 1499.62 423.695C1500.59 424.318 1501.88 424.038 1502.5 423.07C1503.12 422.102 1502.84 420.813 1501.88 420.191C1492.24 413.997 1482.62 406.427 1473.26 397.226C1479.94 393.8 1487.02 391.16 1494.36 389.383C1505.91 398.927 1531.35 414.391 1561.67 419.591C1562.81 419.785 1563.89 419.024 1564.08 417.89C1564.27 416.756 1563.51 415.679 1562.38 415.484C1535.04 410.797 1511.74 397.482 1499.65 388.26C1514.84 385.481 1530.93 386.371 1546.63 391.578C1562.38 396.802 1575.85 405.743 1586.39 417.103C1583.82 417.21 1581.27 417.222 1578.73 417.147C1577.58 417.112 1576.62 418.017 1576.59 419.167C1576.55 420.317 1577.46 421.277 1578.61 421.311C1582.32 421.422 1586.08 421.352 1589.87 421.076C1595.7 428.106 1600.48 435.93 1604.07 444.279ZM1429.3 444.228C1446.21 471.983 1501.99 516.303 1609.5 502.782C1609.5 502.81 1609.49 502.839 1609.48 502.867C1608.8 505.862 1607.97 508.852 1606.98 511.829C1606.11 514.461 1605.13 517.03 1604.06 519.531C1599.71 520.42 1595.45 521.181 1591.26 521.82C1590.12 521.994 1589.34 523.057 1589.52 524.194C1589.69 525.331 1590.75 526.113 1591.89 525.939C1595.18 525.437 1598.52 524.861 1601.9 524.208C1596.93 534.236 1590.35 543.08 1582.58 550.524C1574.22 558.541 1564.48 564.936 1553.9 569.436C1542.37 571.478 1530.12 570.861 1517.88 568.501C1516.75 568.283 1515.65 569.023 1515.44 570.152C1515.22 571.282 1515.96 572.375 1517.09 572.592C1523.75 573.877 1530.47 574.67 1537.12 574.813C1520.93 578.388 1503.61 577.778 1486.73 572.182C1467.8 565.902 1452.16 554.249 1440.95 539.477C1456.13 549.693 1478.78 562.098 1503.01 569.167C1504.12 569.489 1505.28 568.855 1505.6 567.751C1505.92 566.646 1505.29 565.489 1504.18 565.167C1475.11 556.685 1448.25 540.301 1434.43 529.691C1428.68 519.803 1424.73 508.908 1422.82 497.538C1421.1 487.276 1421.05 476.628 1422.86 465.984C1425.77 470.31 1429.46 474.964 1433.93 479.71C1434.72 480.548 1436.04 480.587 1436.88 479.798C1437.72 479.009 1437.75 477.691 1436.97 476.853C1431.35 470.891 1427.06 465.131 1424.06 460.093C1424.71 457.365 1425.48 454.642 1426.38 451.93C1427.25 449.298 1428.23 446.729 1429.3 444.228ZM1580.82 527.376C1581.96 527.254 1582.79 526.228 1582.67 525.084C1582.55 523.94 1581.52 523.111 1580.38 523.233C1519.27 529.739 1475.81 510.062 1449.46 488.475C1448.57 487.746 1447.26 487.876 1446.53 488.766C1445.8 489.656 1445.93 490.969 1446.82 491.698C1473.97 513.944 1518.53 534.009 1580.82 527.376ZM1549.33 551.838C1550.48 551.973 1551.51 551.157 1551.65 550.015C1551.78 548.872 1550.97 547.836 1549.83 547.7C1536.31 546.093 1523.74 543.715 1512.17 540.817C1511.06 540.538 1509.93 541.216 1509.65 542.332C1509.37 543.448 1510.04 544.58 1511.16 544.859C1522.9 547.799 1535.64 550.21 1549.33 551.838ZM1499.95 449.771C1500.94 450.353 1502.22 450.019 1502.8 449.026C1503.38 448.033 1503.05 446.757 1502.05 446.175C1498.53 444.113 1495.11 441.97 1491.81 439.777C1490.85 439.14 1489.56 439.401 1488.92 440.36C1488.28 441.318 1488.55 442.611 1489.5 443.248C1492.87 445.482 1496.35 447.667 1499.95 449.771ZM1499.54 471.851C1500.57 472.332 1501.79 471.905 1502.29 470.888C1502.8 469.872 1502.39 468.64 1501.39 468.116L1488.08 461.194C1487.07 460.67 1485.83 461.048 1485.29 462.043C1484.75 463.038 1485.1 464.286 1486.08 464.85C1490.35 467.296 1494.84 469.645 1499.54 471.851Z" stroke="black" stroke-width="4.16667" stroke-linecap="round" stroke-linejoin="round"/>
<path d="M1949.69 223.746C1931.5 227.3 1895.92 226.588 1858.62 207.06M1792.93 267.589C1819.68 289.506 1863.69 309.377 1925.39 302.807M1775.13 219.398C1790.61 246.241 1845.75 292.07 1954.76 278.126M1948.87 221.782C1931.01 225.155 1896.17 224.369 1859.59 205.214C1858.57 204.681 1857.31 205.074 1856.77 206.094C1856.24 207.113 1856.63 208.372 1857.65 208.906C1895.63 228.788 1931.92 229.444 1950.46 225.717C1952.02 229.823 1953.29 234.042 1954.27 238.344C1940.3 244.185 1926.03 246.132 1911.99 245.309C1910.84 245.242 1909.85 246.118 1909.78 247.267C1909.72 248.416 1910.59 249.401 1911.74 249.469C1926.1 250.31 1940.74 248.368 1955.12 242.501C1956.05 247.654 1956.57 252.909 1956.63 258.216C1935.16 262.726 1915.14 263.064 1896.87 260.609C1895.73 260.456 1894.68 261.256 1894.53 262.396C1894.37 263.537 1895.17 264.585 1896.31 264.739C1914.79 267.221 1934.98 266.913 1956.59 262.481C1956.44 266.961 1955.97 271.468 1955.17 275.973C1844.59 290.339 1790.19 242.879 1776.23 217.097C1778.97 211.561 1782.2 206.386 1785.85 201.608C1789.19 197.245 1792.87 193.212 1796.85 189.537C1802.26 195.277 1809.17 201.743 1817.24 208.25C1818.14 208.972 1819.45 208.831 1820.17 207.935C1820.9 207.039 1820.76 205.728 1819.86 205.006C1811.97 198.648 1805.23 192.346 1799.97 186.776C1804.42 183.016 1809.19 179.68 1814.23 176.803C1824.07 186.612 1834.23 194.65 1844.41 201.198C1845.38 201.821 1846.67 201.541 1847.29 200.573C1847.92 199.605 1847.64 198.316 1846.67 197.694C1837.04 191.499 1827.41 183.93 1818.05 174.729C1824.74 171.303 1831.82 168.663 1839.15 166.886C1850.7 176.43 1876.14 191.894 1906.47 197.094C1907.6 197.288 1908.68 196.527 1908.87 195.393C1909.07 194.259 1908.31 193.182 1907.17 192.987C1879.84 188.3 1856.53 174.984 1844.44 165.762C1859.63 162.983 1875.72 163.873 1891.42 169.081C1907.17 174.305 1920.64 183.246 1931.18 194.606C1928.61 194.713 1926.06 194.725 1923.53 194.65C1922.38 194.615 1921.42 195.52 1921.38 196.67C1921.35 197.82 1922.25 198.78 1923.4 198.814C1927.11 198.925 1930.87 198.855 1934.66 198.579C1940.49 205.609 1945.27 213.433 1948.87 221.782ZM1774.1 221.731C1791 249.486 1846.78 293.806 1954.29 280.285C1954.29 280.313 1954.28 280.342 1954.28 280.37C1953.59 283.365 1952.76 286.355 1951.78 289.332C1950.9 291.964 1949.93 294.532 1948.85 297.034C1944.51 297.923 1940.24 298.684 1936.05 299.323C1934.92 299.497 1934.14 300.56 1934.31 301.697C1934.48 302.834 1935.55 303.616 1936.68 303.442C1939.97 302.94 1943.31 302.364 1946.69 301.711C1941.73 311.739 1935.14 320.583 1927.37 328.027C1919.01 336.044 1909.27 342.439 1898.7 346.939C1887.16 348.981 1874.91 348.364 1862.67 346.004C1861.54 345.786 1860.45 346.525 1860.23 347.655C1860.01 348.785 1860.75 349.878 1861.88 350.095C1868.54 351.38 1875.26 352.173 1881.91 352.316C1865.73 355.891 1848.4 355.281 1831.52 349.685C1812.59 343.405 1796.95 331.752 1785.74 316.98C1800.93 327.196 1823.58 339.601 1847.81 346.67C1848.91 346.992 1850.07 346.358 1850.39 345.253C1850.71 344.149 1850.08 342.992 1848.97 342.67C1819.9 334.188 1793.04 317.804 1779.22 307.194C1773.48 297.306 1769.52 286.41 1767.61 275.041C1765.89 264.779 1765.84 254.131 1767.66 243.487C1770.57 247.813 1774.26 252.467 1778.73 257.213C1779.51 258.051 1780.83 258.09 1781.67 257.301C1782.51 256.512 1782.55 255.194 1781.76 254.356C1776.14 248.394 1771.85 242.634 1768.86 237.596C1769.5 234.868 1770.27 232.145 1771.17 229.433C1772.04 226.801 1773.02 224.232 1774.1 221.731ZM1925.61 304.879C1926.75 304.757 1927.58 303.731 1927.46 302.587C1927.34 301.442 1926.31 300.614 1925.17 300.736C1864.06 307.242 1820.6 287.565 1794.25 265.978C1793.36 265.249 1792.05 265.379 1791.32 266.269C1790.59 267.159 1790.72 268.472 1791.61 269.201C1818.77 291.447 1863.32 311.512 1925.61 304.879ZM1894.13 329.34C1895.27 329.476 1896.31 328.66 1896.44 327.518C1896.58 326.375 1895.76 325.339 1894.62 325.203C1881.1 323.596 1868.54 321.218 1856.97 318.32C1855.85 318.041 1854.72 318.719 1854.44 319.835C1854.16 320.951 1854.84 322.082 1855.95 322.362C1867.69 325.302 1880.43 327.713 1894.13 329.34ZM1844.74 227.274C1845.74 227.856 1847.01 227.522 1847.59 226.529C1848.17 225.536 1847.84 224.26 1846.85 223.678C1843.32 221.616 1839.9 219.473 1836.6 217.28C1835.64 216.643 1834.35 216.904 1833.71 217.862C1833.08 218.821 1833.34 220.114 1834.3 220.751C1837.66 222.985 1841.15 225.17 1844.74 227.274ZM1844.33 249.353C1845.36 249.835 1846.58 249.407 1847.09 248.391C1847.59 247.374 1847.19 246.143 1846.18 245.619L1832.87 238.697C1831.87 238.173 1830.63 238.551 1830.08 239.546C1829.54 240.541 1829.89 241.789 1830.87 242.352C1835.15 244.799 1839.63 247.148 1844.33 249.353Z" stroke="black" stroke-width="4.16667" stroke-linecap="round" stroke-linejoin="round"/>
<path d="M1627.72 391.167L1624.02 389.941L1630.15 371.48L1633.84 372.706L1631.39 380.095L1638.77 382.542L1641.22 375.152L1644.91 376.378L1638.79 394.839L1635.1 393.613L1637.54 386.237L1630.17 383.79L1627.72 391.167ZM1643.25 402.149L1644.43 398.609L1646.38 399.284C1646.72 399.398 1647.07 399.451 1647.42 399.445C1647.78 399.439 1648.12 399.381 1648.45 399.272C1648.79 399.166 1649.11 399.009 1649.41 398.803C1649.7 398.605 1649.97 398.369 1650.2 398.094C1649.76 398.129 1649.31 398.161 1648.85 398.191C1648.4 398.223 1647.98 398.172 1647.57 398.038C1646.73 397.756 1645.98 397.341 1645.33 396.793C1644.68 396.245 1644.17 395.603 1643.78 394.866C1643.41 394.123 1643.19 393.302 1643.13 392.405C1643.07 391.501 1643.21 390.556 1643.54 389.569L1646.07 381.948L1649.57 383.109L1647.04 390.73C1646.88 391.219 1646.8 391.671 1646.82 392.086C1646.85 392.495 1646.94 392.863 1647.1 393.192C1647.26 393.512 1647.48 393.785 1647.75 394.01C1648.04 394.239 1648.37 394.414 1648.74 394.536C1649.1 394.656 1649.46 394.687 1649.83 394.629C1650.22 394.566 1650.57 394.436 1650.91 394.241C1651.24 394.046 1651.53 393.8 1651.78 393.502C1652.03 393.196 1652.22 392.858 1652.34 392.489L1654.87 384.868L1658.41 386.042L1654.42 398.092C1654.09 399.059 1653.6 399.906 1652.94 400.633C1652.29 401.361 1651.54 401.935 1650.69 402.357C1649.84 402.781 1648.93 403.037 1647.96 403.124C1646.99 403.212 1646.02 403.094 1645.05 402.773L1643.25 402.149ZM1669.85 405.142L1669 404.86L1668.27 402.515C1667.83 402.704 1667.38 402.869 1666.92 403.01C1666.46 403.145 1666 403.243 1665.52 403.304C1665.05 403.356 1664.57 403.365 1664.1 403.332C1663.63 403.301 1663.17 403.211 1662.73 403.063C1661.76 402.742 1660.9 402.258 1660.16 401.613C1659.44 400.962 1658.86 400.208 1658.43 399.351C1658.01 398.488 1657.76 397.554 1657.69 396.547C1657.61 395.532 1657.75 394.501 1658.1 393.454C1658.44 392.416 1658.95 391.511 1659.61 390.741C1660.28 389.971 1661.04 389.365 1661.89 388.924C1662.75 388.485 1663.66 388.222 1664.63 388.134C1665.62 388.05 1666.59 388.169 1667.56 388.49C1667.87 388.593 1668.18 388.724 1668.49 388.884C1668.81 389.046 1669.1 389.239 1669.37 389.461C1669.65 389.678 1669.89 389.927 1670.11 390.206C1670.32 390.486 1670.47 390.795 1670.57 391.132L1672.71 384.695L1676.25 385.869L1669.85 405.142ZM1668.64 396.951C1668.8 396.471 1668.86 395.976 1668.82 395.467C1668.79 394.952 1668.67 394.471 1668.47 394.022C1668.27 393.565 1667.99 393.162 1667.63 392.814C1667.28 392.46 1666.86 392.203 1666.38 392.044C1665.9 391.884 1665.42 391.819 1664.93 391.848C1664.45 391.881 1664 392.007 1663.58 392.228C1663.16 392.443 1662.79 392.752 1662.45 393.156C1662.12 393.56 1661.86 394.053 1661.66 394.637C1661.5 395.143 1661.43 395.654 1661.46 396.168C1661.49 396.683 1661.6 397.163 1661.79 397.609C1662 398.058 1662.28 398.45 1662.63 398.787C1662.99 399.127 1663.42 399.377 1663.9 399.536C1664.38 399.695 1664.86 399.742 1665.35 399.675C1665.85 399.603 1666.32 399.448 1666.75 399.21C1667.18 398.964 1667.56 398.647 1667.89 398.26C1668.23 397.868 1668.48 397.432 1668.64 396.951ZM1676.06 407.2L1672.55 406.034L1677.12 392.246L1677.97 392.528L1678.58 394.547C1679.32 394.22 1680.1 394.039 1680.91 394.003C1681.72 393.959 1682.52 394.065 1683.29 394.321L1686.39 395.35L1685.23 398.852L1682.13 397.823C1681.76 397.701 1681.39 397.654 1681.02 397.683C1680.64 397.712 1680.3 397.807 1679.98 397.968C1679.66 398.128 1679.38 398.349 1679.13 398.63C1678.89 398.91 1678.7 399.235 1678.58 399.604L1676.06 407.2ZM1698.86 406.972C1698.51 408.002 1698.01 408.902 1697.35 409.672C1696.68 410.434 1695.93 411.035 1695.08 411.477C1694.23 411.91 1693.31 412.173 1692.33 412.266C1691.36 412.353 1690.38 412.235 1689.4 411.91C1688.43 411.589 1687.58 411.101 1686.84 410.447C1686.12 409.788 1685.54 409.03 1685.11 408.172C1684.69 407.309 1684.45 406.375 1684.37 405.368C1684.3 404.353 1684.43 403.331 1684.77 402.301C1685.12 401.254 1685.63 400.345 1686.29 399.575C1686.96 398.805 1687.71 398.203 1688.56 397.77C1689.42 397.332 1690.34 397.069 1691.31 396.981C1692.29 396.897 1693.27 397.015 1694.23 397.337C1695.21 397.662 1696.07 398.141 1696.8 398.774C1697.55 399.402 1698.13 400.143 1698.55 400.998C1698.98 401.844 1699.22 402.778 1699.29 403.802C1699.37 404.817 1699.22 405.874 1698.86 406.972ZM1695.32 405.798C1695.5 405.231 1695.58 404.69 1695.54 404.172C1695.51 403.649 1695.4 403.171 1695.19 402.74C1694.98 402.3 1694.69 401.923 1694.32 401.609C1693.96 401.289 1693.54 401.05 1693.06 400.89C1692.58 400.731 1692.09 400.67 1691.6 400.708C1691.12 400.74 1690.67 400.871 1690.24 401.1C1689.83 401.324 1689.45 401.638 1689.12 402.041C1688.79 402.437 1688.53 402.917 1688.34 403.484C1688.16 404.016 1688.09 404.539 1688.12 405.054C1688.15 405.569 1688.26 406.044 1688.46 406.482C1688.67 406.922 1688.95 407.31 1689.3 407.647C1689.67 407.978 1690.09 408.223 1690.57 408.383C1691.05 408.542 1691.53 408.602 1692.01 408.561C1692.5 408.523 1692.96 408.394 1693.38 408.173C1693.81 407.952 1694.19 407.64 1694.52 407.236C1694.87 406.835 1695.13 406.356 1695.32 405.798ZM1710.61 410.87C1710.77 410.39 1710.83 409.895 1710.79 409.386C1710.76 408.871 1710.64 408.39 1710.44 407.941C1710.24 407.484 1709.96 407.081 1709.6 406.733C1709.25 406.379 1708.83 406.122 1708.35 405.963C1707.87 405.803 1707.39 405.734 1706.9 405.755C1706.43 405.778 1705.98 405.896 1705.56 406.108C1705.14 406.324 1704.77 406.637 1704.43 407.049C1704.1 407.453 1703.83 407.955 1703.63 408.556C1703.44 409.131 1703.36 409.68 1703.39 410.204C1703.42 410.718 1703.53 411.19 1703.73 411.618C1703.94 412.05 1704.23 412.425 1704.59 412.745C1704.96 413.059 1705.39 413.296 1705.87 413.455C1706.35 413.615 1706.83 413.661 1707.32 413.595C1707.82 413.522 1708.29 413.367 1708.72 413.129C1709.15 412.883 1709.53 412.566 1709.86 412.18C1710.2 411.787 1710.45 411.351 1710.61 410.87ZM1712.4 417.323C1712.08 418.293 1711.59 419.141 1710.94 419.868C1710.29 420.596 1709.54 421.17 1708.68 421.592C1707.84 422.016 1706.92 422.271 1705.94 422.355C1704.97 422.442 1704 422.325 1703.03 422.003L1701.28 421.393L1702.44 417.878L1704.17 418.48C1704.72 418.663 1705.21 418.745 1705.65 418.727C1706.08 418.718 1706.47 418.633 1706.82 418.472C1707.16 418.32 1707.47 418.111 1707.73 417.845C1707.99 417.581 1708.23 417.289 1708.44 416.968C1708.23 417.146 1707.97 417.265 1707.67 417.326C1707.37 417.378 1707.04 417.394 1706.7 417.374C1706.35 417.366 1706.01 417.322 1705.65 417.243C1705.31 417.166 1704.99 417.079 1704.7 416.983C1703.73 416.661 1702.87 416.191 1702.12 415.571C1701.38 414.955 1700.79 414.231 1700.35 413.399C1699.93 412.562 1699.68 411.632 1699.61 410.608C1699.54 409.585 1699.69 408.506 1700.07 407.373C1700.41 406.335 1700.92 405.431 1701.58 404.66C1702.25 403.89 1703 403.284 1703.86 402.843C1704.72 402.404 1705.63 402.141 1706.6 402.054C1707.58 401.969 1708.56 402.088 1709.53 402.41C1709.98 402.558 1710.4 402.76 1710.8 403.017C1711.2 403.273 1711.57 403.569 1711.92 403.903C1712.27 404.237 1712.58 404.598 1712.86 404.987C1713.15 405.378 1713.41 405.782 1713.63 406.199L1715.54 405.017L1716.39 405.299L1712.4 417.323ZM1721.12 418.399C1721.24 418.487 1721.37 418.563 1721.5 418.626C1721.63 418.68 1721.77 418.73 1721.91 418.775C1722.25 418.889 1722.6 418.952 1722.94 418.962C1723.29 418.973 1723.63 418.939 1723.97 418.858C1724.31 418.772 1724.63 418.64 1724.93 418.462C1725.23 418.278 1725.51 418.055 1725.75 417.792L1727.46 421.233C1726.98 421.588 1726.47 421.879 1725.92 422.106C1725.37 422.336 1724.81 422.497 1724.23 422.589C1723.65 422.684 1723.07 422.705 1722.48 422.652C1721.89 422.61 1721.31 422.493 1720.74 422.303C1719.77 421.981 1718.91 421.498 1718.17 420.853C1717.44 420.21 1716.86 419.461 1716.43 418.603C1716.01 417.749 1715.76 416.819 1715.69 415.812C1715.61 414.797 1715.75 413.758 1716.11 412.693C1716.47 411.604 1716.98 410.669 1717.65 409.89C1718.32 409.112 1719.08 408.51 1719.92 408.086C1720.78 407.664 1721.69 407.418 1722.65 407.348C1723.63 407.281 1724.6 407.408 1725.57 407.73C1726.14 407.92 1726.68 408.175 1727.19 408.495C1727.69 408.814 1728.15 409.184 1728.55 409.604C1728.96 410.026 1729.32 410.498 1729.62 411.018C1729.93 411.529 1730.17 412.07 1730.34 412.642L1721.12 418.399ZM1725.32 411.749C1725.18 411.635 1725.03 411.542 1724.87 411.471C1724.72 411.402 1724.56 411.34 1724.39 411.283C1723.91 411.123 1723.43 411.063 1722.94 411.101C1722.46 411.133 1722.01 411.259 1721.58 411.48C1721.17 411.704 1720.79 412.017 1720.46 412.421C1720.12 412.816 1719.86 413.301 1719.67 413.876C1719.63 414.005 1719.59 414.152 1719.54 414.318C1719.5 414.487 1719.47 414.661 1719.44 414.842C1719.42 415.016 1719.4 415.188 1719.4 415.356C1719.39 415.525 1719.4 415.681 1719.43 415.824L1725.32 411.749ZM1731.88 425.713L1728.37 424.547L1732.94 410.759L1733.79 411.041L1734.5 412.764C1735.24 412.437 1736.01 412.255 1736.81 412.216C1737.63 412.172 1738.43 412.28 1739.21 412.539C1740.05 412.817 1740.79 413.244 1741.43 413.818C1742.07 414.383 1742.57 415.041 1742.94 415.793C1743.32 416.536 1743.54 417.337 1743.6 418.198C1743.68 419.053 1743.58 419.905 1743.3 420.755L1740.69 428.633L1737.17 427.468L1739.78 419.589C1739.9 419.229 1739.95 418.867 1739.92 418.504C1739.89 418.132 1739.79 417.786 1739.63 417.466C1739.47 417.146 1739.25 416.865 1738.98 416.622C1738.71 416.379 1738.39 416.198 1738.03 416.079C1737.66 415.956 1737.29 415.91 1736.92 415.939C1736.55 415.968 1736.21 416.063 1735.89 416.224C1735.57 416.384 1735.28 416.605 1735.04 416.885C1734.79 417.157 1734.61 417.474 1734.49 417.834L1731.88 425.713Z" fill="#2662E7"/>
<path d="M1686.86 364.424L1677.62 361.361L1692.93 315.208L1702.17 318.272L1696.04 336.745L1714.48 342.862L1720.61 324.388L1729.84 327.451L1714.54 373.604L1705.3 370.54L1711.42 352.099L1692.97 345.982L1686.86 364.424Z" fill="black"/>
<path d="M1611.21 209.922L1607.67 208.746L1612.37 194.571L1610.6 193.984L1611.78 190.437L1617.09 192.2L1611.21 209.922Z" fill="black"/>
</g>
<g clip-path="url(#clip3_220_63)">
<rect x="47" y="237.309" width="250" height="250" transform="rotate(-15.6188 47 237.309)" fill="#E4FEFC"/>
<path d="M176.626 427.549C165.712 438.473 140.787 454.549 105.918 458.417M88.7014 530.835C117.395 533.527 157.06 526.772 196.644 493.503M53.9632 505.816C77.1571 517.162 136.602 523.164 205.45 462.772M175.145 426.573C164.375 437.218 139.929 452.897 105.727 456.692C104.774 456.797 104.087 457.656 104.193 458.609C104.298 459.562 105.157 460.249 106.11 460.143C141.611 456.204 167.001 439.759 178.078 428.551C181.065 430.665 183.911 432.987 186.591 435.503C179.654 446.046 170.699 454.035 160.61 460.005C159.784 460.494 159.511 461.558 160 462.384C160.488 463.209 161.553 463.482 162.378 462.994C172.69 456.892 181.91 448.73 189.114 437.981C192.159 441.108 194.959 444.501 197.475 448.139C184.733 461.255 171.059 470.806 157.286 477.618C156.426 478.043 156.074 479.084 156.499 479.944C156.924 480.803 157.966 481.155 158.825 480.73C172.749 473.844 186.557 464.233 199.43 451.107C201.413 454.272 203.188 457.605 204.73 461.093C134.999 522.505 75.2984 515.036 53.6518 503.713C52.9663 498.613 52.7893 493.532 53.0872 488.53C53.3593 483.963 54.0275 479.46 55.0665 475.068C61.48 476.515 69.2663 477.767 77.8763 478.504C78.8316 478.586 79.6724 477.878 79.7542 476.923C79.8361 475.967 79.128 475.127 78.1727 475.045C69.7595 474.324 62.1696 473.105 55.9403 471.706C57.2637 467.035 59.0105 462.506 61.1488 458.176C72.5186 460.372 83.286 461.195 93.3704 460.981C94.329 460.96 95.0896 460.167 95.0693 459.208C95.0489 458.249 94.2553 457.489 93.2967 457.509C83.7569 457.712 73.5776 456.964 62.8283 454.96C65.8505 449.481 69.5164 444.36 73.7565 439.717C86.1849 440.934 110.967 439.777 134.346 429.252C135.221 428.858 135.611 427.83 135.217 426.956C134.823 426.082 133.795 425.692 132.921 426.086C111.846 435.573 89.5406 437.221 76.8888 436.478C86.0964 427.483 97.6299 420.607 110.905 416.896C124.224 413.173 137.694 413.082 150.266 416.027C148.542 417.296 146.783 418.493 144.998 419.62C144.187 420.132 143.945 421.204 144.457 422.015C144.968 422.826 146.041 423.068 146.851 422.556C149.469 420.904 152.034 419.106 154.525 417.15C161.827 419.295 168.773 422.477 175.145 426.573ZM54.3312 507.912C78.9373 519.223 138.125 523.882 206.135 464.48C206.144 464.502 206.153 464.525 206.161 464.547C207.085 466.934 207.902 469.388 208.606 471.905C209.228 474.131 209.749 476.361 210.171 478.59C207.583 481.227 204.989 483.738 202.393 486.13C201.688 486.779 201.643 487.878 202.292 488.583C202.942 489.288 204.04 489.333 204.746 488.683C206.785 486.805 208.822 484.854 210.856 482.828C212.093 492.07 211.661 501.247 209.759 510.009C207.71 519.445 203.956 528.399 198.743 536.433C191.724 543.213 182.966 548.493 173.409 552.561C172.526 552.936 172.116 553.956 172.491 554.838C172.867 555.72 173.886 556.131 174.768 555.756C179.971 553.541 184.983 550.962 189.645 547.965C180.124 557.971 167.866 565.617 153.597 569.606C137.587 574.081 121.354 573.309 106.726 568.32C121.981 568.309 143.41 566.336 163.448 559.94C164.361 559.649 164.865 558.672 164.574 557.759C164.282 556.845 163.305 556.341 162.392 556.633C138.349 564.307 112.159 565.488 97.6641 564.592C89.0916 560.432 81.2828 554.745 74.6711 547.774C68.7039 541.484 63.7112 534.148 60.0113 525.945C64.035 527.581 68.7524 529.08 74.052 530.279C74.9872 530.49 75.9168 529.903 76.1283 528.968C76.3398 528.033 75.7531 527.103 74.8179 526.892C68.1605 525.386 62.5112 523.404 58.0968 521.316C57.2726 519.13 56.5373 516.889 55.8962 514.597C55.274 512.371 54.7532 510.141 54.3312 507.912ZM197.761 494.832C198.495 494.216 198.59 493.12 197.973 492.386C197.356 491.652 196.261 491.557 195.527 492.174C156.322 525.124 117.126 531.758 88.8635 529.107C87.9089 529.017 87.0624 529.719 86.9729 530.673C86.8833 531.628 87.5846 532.474 88.5392 532.564C117.664 535.296 157.798 528.419 197.761 494.832ZM187.392 526.397C188.245 525.959 188.581 524.912 188.143 524.059C187.705 523.207 186.658 522.87 185.805 523.308C175.714 528.492 165.924 532.698 156.578 536.083C155.676 536.409 155.21 537.405 155.536 538.306C155.863 539.208 156.858 539.674 157.76 539.347C167.243 535.913 177.167 531.649 187.392 526.397ZM105.738 478.85C106.695 478.789 107.422 477.964 107.361 477.007C107.301 476.05 106.476 475.324 105.519 475.384C102.124 475.599 98.7624 475.711 95.4593 475.732C94.5005 475.738 93.7282 476.521 93.7345 477.479C93.7407 478.438 94.523 479.21 95.4818 479.204C98.8473 479.182 102.274 479.069 105.738 478.85ZM115.736 494.299C116.67 494.154 117.316 493.289 117.19 492.353C117.064 491.416 116.213 490.752 115.274 490.859L102.852 492.271C101.913 492.378 101.232 493.216 101.32 494.157C101.408 495.098 102.232 495.796 103.174 495.727C107.265 495.43 111.461 494.963 115.736 494.299Z" stroke="black" stroke-width="3.47222" stroke-linecap="round" stroke-linejoin="round"/>
<path d="M311.33 113.241C300.415 124.166 275.49 140.241 240.621 144.11M223.405 216.528C252.098 219.219 291.763 212.464 331.347 179.196M188.666 191.508C211.86 202.854 271.305 208.856 340.153 148.465M309.848 112.266C299.078 122.91 274.632 138.59 240.43 142.384C239.477 142.49 238.79 143.348 238.896 144.301C239.001 145.254 239.86 145.941 240.813 145.835C276.314 141.897 301.704 125.451 312.781 114.244C315.768 116.357 318.614 118.679 321.294 121.196C314.357 131.738 305.402 139.728 295.313 145.698C294.488 146.186 294.215 147.251 294.703 148.076C295.191 148.901 296.256 149.174 297.081 148.686C307.393 142.584 316.613 134.422 323.817 123.673C326.862 126.8 329.662 130.194 332.178 133.832C319.436 146.947 305.762 156.498 291.989 163.31C291.129 163.735 290.777 164.777 291.202 165.636C291.627 166.496 292.669 166.848 293.528 166.423C307.452 159.536 321.26 149.925 334.133 136.8C336.116 139.964 337.891 143.298 339.434 146.785C269.702 208.197 210.002 200.729 188.355 189.405C187.669 184.305 187.492 179.225 187.79 174.223C188.062 169.655 188.731 165.153 189.77 160.76C196.183 162.207 203.969 163.459 212.579 164.197C213.535 164.279 214.376 163.571 214.457 162.615C214.539 161.66 213.831 160.819 212.876 160.737C204.463 160.016 196.873 158.797 190.643 157.398C191.967 152.728 193.714 148.199 195.852 143.868C207.222 146.064 217.989 146.887 228.074 146.673C229.032 146.653 229.793 145.859 229.772 144.9C229.752 143.942 228.958 143.181 228 143.201C218.46 143.404 208.281 142.656 197.531 140.652C200.554 135.174 204.219 130.052 208.46 125.41C220.888 126.627 245.671 125.469 269.05 114.944C269.924 114.551 270.314 113.523 269.92 112.648C269.526 111.774 268.499 111.384 267.624 111.778C246.55 121.265 224.244 122.914 211.592 122.171C220.8 113.175 232.333 106.3 245.609 102.588C258.927 98.8652 272.397 98.7741 284.969 101.719C283.245 102.989 281.486 104.185 279.701 105.313C278.89 105.825 278.648 106.897 279.16 107.708C279.672 108.518 280.744 108.761 281.555 108.249C284.172 106.596 286.737 104.798 289.228 102.843C296.53 104.987 303.476 108.169 309.848 112.266ZM189.034 193.604C213.64 204.915 272.829 209.574 340.838 150.172C340.847 150.194 340.856 150.217 340.864 150.24C341.788 152.627 342.605 155.081 343.309 157.598C343.931 159.823 344.452 162.053 344.874 164.282C342.286 166.919 339.692 169.431 337.096 171.822C336.391 172.472 336.346 173.57 336.996 174.275C337.645 174.98 338.743 175.025 339.449 174.376C341.488 172.497 343.525 170.546 345.559 168.521C346.796 177.762 346.364 186.94 344.462 195.702C342.413 205.137 338.659 214.092 333.446 222.125C326.427 228.906 317.669 234.186 308.112 238.253C307.23 238.629 306.819 239.648 307.194 240.53C307.57 241.413 308.589 241.823 309.472 241.448C314.674 239.234 319.686 236.655 324.348 233.658C314.828 243.663 302.569 251.309 288.3 255.298C272.29 259.774 256.057 259.001 241.429 254.013C256.684 254.001 278.113 252.029 298.151 245.633C299.064 245.341 299.568 244.364 299.277 243.451C298.985 242.537 298.008 242.033 297.095 242.325C273.052 249.999 246.862 251.18 232.367 250.285C223.795 246.125 215.986 240.437 209.374 233.467C203.407 227.176 198.414 219.84 194.714 211.637C198.738 213.274 203.456 214.773 208.755 215.971C209.69 216.183 210.62 215.596 210.831 214.661C211.043 213.725 210.456 212.796 209.521 212.584C202.864 211.079 197.214 209.096 192.8 207.008C191.976 204.823 191.24 202.582 190.599 200.289C189.977 198.063 189.456 195.833 189.034 193.604ZM332.464 180.525C333.198 179.908 333.293 178.813 332.676 178.079C332.059 177.345 330.964 177.25 330.23 177.867C291.026 210.816 251.829 217.45 223.567 214.799C222.612 214.71 221.766 215.411 221.676 216.366C221.586 217.32 222.288 218.167 223.242 218.256C252.367 220.988 292.501 214.112 332.464 180.525ZM322.095 212.089C322.948 211.651 323.284 210.605 322.846 209.752C322.408 208.899 321.361 208.563 320.508 209.001C310.417 214.185 300.627 218.39 291.281 221.775C290.379 222.102 289.913 223.097 290.24 223.999C290.566 224.9 291.562 225.366 292.463 225.04C301.946 221.606 311.871 217.342 322.095 212.089ZM240.441 164.542C241.398 164.481 242.125 163.657 242.064 162.7C242.004 161.743 241.179 161.016 240.222 161.077C236.827 161.292 233.465 161.403 230.162 161.424C229.204 161.431 228.431 162.213 228.438 163.172C228.444 164.131 229.226 164.903 230.185 164.897C233.55 164.875 236.978 164.761 240.441 164.542ZM250.439 179.992C251.373 179.847 252.019 178.982 251.893 178.045C251.768 177.108 250.916 176.445 249.977 176.551L237.556 177.963C236.617 178.07 235.935 178.908 236.023 179.849C236.111 180.79 236.935 181.488 237.877 181.42C241.968 181.123 246.165 180.656 250.439 179.992Z" stroke="black" stroke-width="3.47222" stroke-linecap="round" stroke-linejoin="round"/>
<path d="M189.015 371.428C188.464 372.255 187.785 372.962 186.979 373.547C186.172 374.132 185.286 374.56 184.321 374.83C183.581 375.037 182.839 375.139 182.094 375.135C181.36 375.137 180.642 375.048 179.942 374.869C179.248 374.679 178.585 374.407 177.954 374.051C177.322 373.696 176.746 373.27 176.224 372.775C175.707 372.27 175.255 371.703 174.869 371.076C174.487 370.439 174.193 369.751 173.986 369.011C173.779 368.271 173.674 367.529 173.67 366.787C173.673 366.043 173.765 365.325 173.947 364.632C174.135 363.931 174.406 363.264 174.761 362.633C175.117 362.001 175.544 361.428 176.041 360.913C176.544 360.389 177.11 359.938 177.74 359.558C178.374 359.17 179.062 358.872 179.802 358.665C180.767 358.395 181.746 358.301 182.74 358.384C183.731 358.459 184.677 358.71 185.58 359.139L184.686 362.323C184.091 361.957 183.444 361.731 182.747 361.644C182.048 361.55 181.357 361.598 180.675 361.789C179.986 361.982 179.377 362.293 178.847 362.723C178.318 363.152 177.891 363.655 177.567 364.231C177.241 364.799 177.032 365.425 176.942 366.107C176.849 366.783 176.898 367.461 177.088 368.144C177.279 368.826 177.589 369.431 178.019 369.961C178.446 370.483 178.948 370.906 179.524 371.23C180.1 371.554 180.725 371.763 181.4 371.855C182.076 371.948 182.758 371.898 183.448 371.706C184.13 371.515 184.746 371.202 185.297 370.766C185.846 370.323 186.281 369.791 186.6 369.17L189.015 371.428ZM201.839 369.569L201.121 369.769L199.52 368.492C199.308 368.825 199.073 369.149 198.817 369.463C198.566 369.768 198.289 370.052 197.988 370.317C197.684 370.574 197.36 370.801 197.017 370.999C196.68 371.195 196.323 371.345 195.946 371.451C195.126 371.68 194.314 371.758 193.512 371.685C192.716 371.61 191.973 371.388 191.283 371.018C190.598 370.638 189.993 370.111 189.468 369.436C188.942 368.761 188.544 367.938 188.272 366.965C188.019 366.058 187.942 365.184 188.043 364.342C188.142 363.492 188.384 362.721 188.769 362.026C189.161 361.33 189.675 360.732 190.31 360.234C190.951 359.726 191.681 359.358 192.501 359.129C192.878 359.023 193.265 358.966 193.662 358.957C194.058 358.948 194.454 358.978 194.849 359.047C195.244 359.117 195.629 359.22 196.004 359.358C196.386 359.494 196.752 359.654 197.1 359.838L197.868 358.133L198.586 357.932L201.839 369.569ZM197.187 364.473C197.074 364.066 196.884 363.697 196.619 363.364C196.359 363.022 196.054 362.744 195.705 362.528C195.353 362.306 194.972 362.158 194.56 362.086C194.154 362.004 193.747 362.019 193.341 362.133C192.935 362.247 192.569 362.423 192.245 362.662C191.928 362.9 191.673 363.19 191.479 363.534C191.293 363.875 191.179 364.267 191.139 364.709C191.096 365.143 191.145 365.614 191.287 366.122C191.429 366.63 191.632 367.062 191.896 367.419C192.158 367.768 192.457 368.041 192.794 368.236C193.137 368.43 193.506 368.546 193.9 368.584C194.302 368.62 194.706 368.582 195.112 368.468C195.518 368.355 195.875 368.161 196.182 367.887C196.494 367.605 196.744 367.281 196.931 366.915C197.117 366.543 197.233 366.146 197.28 365.726C197.332 365.297 197.301 364.879 197.187 364.473ZM207.086 368.102L204.114 368.933L200.855 357.274L201.574 357.073L202.94 358.182C203.297 357.613 203.748 357.127 204.293 356.724C204.835 356.314 205.433 356.018 206.086 355.835L208.71 355.102L209.537 358.063L206.914 358.796C206.602 358.883 206.324 359.024 206.081 359.217C205.838 359.41 205.643 359.637 205.496 359.897C205.35 360.157 205.257 360.441 205.218 360.749C205.179 361.057 205.203 361.367 205.291 361.679L207.086 368.102ZM223.356 357.157C223.612 358.072 223.689 358.95 223.588 359.792C223.487 360.634 223.244 361.402 222.859 362.096C222.472 362.783 221.957 363.377 221.315 363.878C220.68 364.376 219.948 364.741 219.121 364.972C218.301 365.201 217.485 365.265 216.675 365.163C215.871 365.059 215.121 364.811 214.424 364.419C213.735 364.025 213.13 363.498 212.609 362.837C212.086 362.17 211.699 361.386 211.447 360.486L208.55 350.123L211.533 349.29L213.054 354.732C213.157 354.485 213.299 354.249 213.479 354.027C213.667 353.802 213.877 353.603 214.11 353.428C214.35 353.251 214.604 353.098 214.873 352.968C215.14 352.831 215.408 352.725 215.676 352.65C216.503 352.418 217.32 352.358 218.126 352.47C218.936 352.572 219.688 352.823 220.379 353.225C221.07 353.626 221.677 354.16 222.2 354.828C222.721 355.488 223.106 356.265 223.356 357.157ZM220.362 357.994C220.237 357.544 220.04 357.149 219.773 356.809C219.511 356.46 219.206 356.181 218.859 355.973C218.511 355.765 218.133 355.632 217.726 355.574C217.326 355.514 216.922 355.541 216.516 355.654C216.11 355.768 215.75 355.966 215.438 356.249C215.131 356.522 214.885 356.846 214.7 357.218C214.513 357.583 214.396 357.98 214.352 358.407C214.305 358.827 214.338 359.24 214.452 359.646C214.577 360.096 214.77 360.492 215.03 360.834C215.29 361.176 215.594 361.451 215.941 361.659C216.289 361.867 216.664 362.005 217.066 362.073C217.474 362.131 217.881 362.103 218.287 361.989C218.694 361.876 219.052 361.69 219.363 361.43C219.679 361.162 219.932 360.849 220.121 360.491C220.311 360.133 220.428 359.74 220.473 359.313C220.525 358.884 220.488 358.444 220.362 357.994ZM236.277 353.545C236.52 354.416 236.592 355.272 236.491 356.114C236.387 356.949 236.144 357.717 235.762 358.419C235.377 359.113 234.866 359.721 234.23 360.244C233.598 360.757 232.869 361.129 232.042 361.36C231.222 361.589 230.405 361.649 229.592 361.54C228.785 361.422 228.033 361.166 227.336 360.774C226.645 360.373 226.039 359.842 225.518 359.182C224.995 358.514 224.612 357.745 224.368 356.874C224.121 355.989 224.048 355.125 224.149 354.283C224.25 353.441 224.493 352.673 224.877 351.979C225.268 351.275 225.778 350.667 226.409 350.154C227.048 349.639 227.777 349.267 228.597 349.038C229.424 348.806 230.239 348.739 231.041 348.836C231.847 348.923 232.595 349.164 233.285 349.558C233.972 349.945 234.578 350.476 235.103 351.15C235.626 351.818 236.017 352.616 236.277 353.545ZM233.283 354.382C233.15 353.903 232.949 353.493 232.682 353.153C232.42 352.804 232.116 352.529 231.77 352.329C231.423 352.121 231.047 351.995 230.644 351.951C230.246 351.898 229.843 351.928 229.437 352.042C229.031 352.156 228.667 352.339 228.347 352.593C228.032 352.838 227.78 353.139 227.59 353.497C227.406 353.846 227.293 354.237 227.25 354.672C227.205 355.099 227.25 355.552 227.384 356.031C227.509 356.481 227.702 356.877 227.962 357.219C228.222 357.561 228.522 357.837 228.863 358.047C229.21 358.255 229.585 358.393 229.987 358.46C230.395 358.519 230.802 358.491 231.208 358.377C231.615 358.264 231.974 358.081 232.287 357.829C232.607 357.575 232.863 357.273 233.055 356.922C233.246 356.571 233.363 356.179 233.406 355.744C233.456 355.308 233.415 354.854 233.283 354.382ZM242.551 358.187L239.579 359.018L236.32 347.36L237.038 347.159L238.335 348.017C238.692 347.448 239.139 346.963 239.677 346.562C240.219 346.152 240.821 345.855 241.481 345.67C242.192 345.472 242.902 345.422 243.61 345.521C244.317 345.613 244.973 345.833 245.579 346.18C246.182 346.52 246.707 346.971 247.154 347.535C247.607 348.089 247.933 348.725 248.134 349.444L249.996 356.106L247.025 356.937L245.162 350.275C245.077 349.97 244.939 349.699 244.748 349.463C244.555 349.22 244.328 349.025 244.068 348.879C243.808 348.732 243.528 348.639 243.227 348.598C242.926 348.557 242.623 348.579 242.318 348.664C242.006 348.751 241.728 348.891 241.485 349.085C241.242 349.278 241.047 349.504 240.9 349.764C240.754 350.024 240.661 350.309 240.622 350.617C240.581 350.918 240.603 351.221 240.688 351.525L242.551 358.187Z" fill="#2662E7"/>
<path d="M218.295 322.41C216.917 324.477 215.22 326.242 213.204 327.706C211.187 329.169 208.973 330.238 206.56 330.913C204.709 331.43 202.854 331.685 200.993 331.677C199.156 331.682 197.363 331.46 195.613 331.01C193.877 330.537 192.22 329.856 190.641 328.967C189.063 328.078 187.621 327.014 186.316 325.775C185.024 324.513 183.895 323.097 182.928 321.529C181.975 319.937 181.239 318.216 180.722 316.365C180.205 314.515 179.941 312.662 179.931 310.807C179.939 308.946 180.17 307.15 180.625 305.419C181.093 303.665 181.772 301.998 182.661 300.42C183.549 298.841 184.616 297.409 185.86 296.122C187.117 294.812 188.533 293.683 190.106 292.734C191.693 291.763 193.412 291.018 195.262 290.501C197.675 289.826 200.123 289.592 202.606 289.797C205.084 289.985 207.45 290.614 209.706 291.685L207.471 299.645C205.984 298.731 204.368 298.166 202.625 297.949C200.878 297.713 199.151 297.834 197.445 298.311C195.722 298.793 194.199 299.571 192.875 300.645C191.552 301.719 190.485 302.976 189.675 304.415C188.859 305.836 188.338 307.4 188.111 309.107C187.879 310.795 188.001 312.492 188.478 314.197C188.955 315.903 189.73 317.417 190.804 318.74C191.873 320.045 193.127 321.103 194.567 321.913C196.006 322.724 197.57 323.245 199.258 323.477C200.947 323.709 202.653 323.584 204.376 323.103C206.082 322.626 207.623 321.843 209.001 320.754C210.373 319.646 211.459 318.316 212.257 316.763L218.295 322.41Z" fill="black"/>
<path d="M76.6424 254.112C76.8683 254.92 76.9353 255.724 76.8433 256.523C76.7582 257.321 76.5374 258.062 76.1807 258.748C75.8221 259.426 75.3348 260.021 74.7188 260.531C74.1098 261.039 73.3978 261.407 72.5826 261.635C71.7675 261.863 70.9539 261.921 70.1417 261.81C69.3365 261.698 68.5907 261.448 67.9043 261.061C67.216 260.668 66.6147 260.156 66.1006 259.526C65.5935 258.894 65.227 258.174 65.0011 257.366C64.7323 256.405 64.5644 255.442 64.4973 254.476C64.4284 253.504 64.4611 252.56 64.5955 251.644C64.7279 250.72 64.959 249.841 65.2887 249.005C65.6184 248.169 66.0421 247.401 66.5598 246.7L70.6039 245.57C70.2619 245.958 69.9391 246.375 69.6355 246.821C69.3318 247.266 69.0525 247.731 68.7973 248.216C68.5491 248.698 68.3312 249.195 68.1434 249.705C67.9557 250.216 67.8077 250.734 67.6993 251.26C67.9424 250.975 68.2187 250.713 68.5281 250.477C68.8425 250.231 69.1843 250.057 69.5535 249.953C70.3965 249.718 71.1958 249.648 71.9514 249.745C72.712 249.833 73.4003 250.065 74.0162 250.441C74.6302 250.81 75.1634 251.307 75.6159 251.931C76.0685 252.556 76.4106 253.283 76.6424 254.112ZM73.6432 254.95C73.5322 254.553 73.3618 254.199 73.1321 253.888C72.9074 253.567 72.6396 253.308 72.3287 253.11C72.0159 252.904 71.6708 252.771 71.2936 252.712C70.9163 252.652 70.5222 252.679 70.1111 252.794C69.7001 252.909 69.3488 253.09 69.0573 253.337C68.7657 253.584 68.5395 253.876 68.3786 254.214C68.2227 254.543 68.1317 254.903 68.1056 255.293C68.0776 255.676 68.1191 256.067 68.2301 256.464C68.3372 256.847 68.5032 257.199 68.7279 257.519C68.9576 257.83 69.2289 258.088 69.5417 258.294C69.8546 258.499 70.1971 258.637 70.5693 258.705C70.9485 258.772 71.3401 258.749 71.7442 258.636C72.1552 258.521 72.5065 258.34 72.7981 258.093C73.0896 257.847 73.3168 257.558 73.4797 257.227C73.6406 256.889 73.7341 256.525 73.7602 256.134C73.7932 255.742 73.7542 255.347 73.6432 254.95Z" fill="black"/>
</g>
<g clip-path="url(#clip4_220_63)">
<rect x="776" y="79.5273" width="230" height="230" transform="rotate(-5.62085 776 79.5273)" fill="#E4FEFC"/>
<path d="M863.06 272.596C851.426 280.751 826.275 291.335 794.065 289.27M766.9 352.133C792.467 359.155 829.484 359.37 870.662 335.55M739.422 323.916C758.624 337.9 811.524 352.833 883.548 309.113M861.874 271.476C850.415 279.4 825.761 289.701 794.168 287.676C793.287 287.62 792.528 288.288 792.471 289.168C792.415 290.048 793.083 290.808 793.963 290.864C826.758 292.966 852.388 282.121 864.214 273.736C866.584 276.128 868.791 278.687 870.817 281.395C862.848 289.839 853.458 295.647 843.364 299.444C842.538 299.755 842.121 300.676 842.431 301.502C842.742 302.327 843.663 302.745 844.489 302.434C854.806 298.553 864.463 292.631 872.707 284.042C874.966 287.362 876.962 290.884 878.66 294.582C865.021 304.43 851.106 310.899 837.539 314.871C836.692 315.119 836.207 316.006 836.455 316.853C836.703 317.699 837.59 318.185 838.437 317.937C852.152 313.921 866.198 307.419 879.957 297.583C881.249 300.767 882.325 304.071 883.165 307.477C810.177 351.98 757.28 335.678 739.476 321.961C739.669 317.231 740.32 312.599 741.389 308.115C742.365 304.02 743.69 300.048 745.333 296.234C750.913 298.569 757.767 300.947 765.45 302.991C766.303 303.217 767.178 302.71 767.404 301.858C767.631 301.005 767.124 300.13 766.271 299.904C758.764 297.907 752.082 295.59 746.662 293.327C748.607 289.307 750.913 285.483 753.542 281.9C763.492 285.706 773.116 288.172 782.287 289.588C783.159 289.723 783.975 289.125 784.11 288.254C784.244 287.382 783.647 286.566 782.775 286.431C774.099 285.091 764.996 282.788 755.577 279.255C759.19 274.774 763.33 270.719 767.913 267.191C778.979 270.278 801.618 273.188 824.481 267.386C825.336 267.169 825.853 266.3 825.636 265.445C825.419 264.59 824.55 264.073 823.695 264.29C803.085 269.52 782.612 267.45 771.268 264.756C781.047 258.077 792.595 253.689 805.216 252.447C817.877 251.201 830.097 253.27 841.017 257.947C839.252 258.821 837.467 259.625 835.669 260.361C834.853 260.695 834.462 261.628 834.797 262.444C835.131 263.261 836.064 263.651 836.88 263.317C839.515 262.238 842.127 261.018 844.696 259.645C850.969 262.754 856.754 266.746 861.874 271.476ZM739.421 325.874C759.908 340.052 812.79 353.727 883.897 310.77C883.901 310.792 883.905 310.813 883.91 310.835C884.365 313.146 884.714 315.499 884.949 317.892C885.157 320.008 885.273 322.112 885.299 324.198C882.533 326.174 879.782 328.036 877.048 329.788C876.305 330.264 876.089 331.252 876.565 331.994C877.041 332.737 878.029 332.953 878.772 332.477C880.92 331.101 883.077 329.659 885.243 328.148C884.888 336.719 883.031 344.965 879.907 352.6C876.544 360.821 871.712 368.335 865.707 374.781C858.264 379.803 849.486 383.188 840.177 385.347C839.317 385.546 838.782 386.404 838.982 387.263C839.181 388.123 840.039 388.658 840.898 388.458C845.966 387.283 850.918 385.747 855.621 383.776C845.397 391.321 833.069 396.29 819.504 397.625C804.284 399.123 789.7 395.831 777.243 388.974C791.066 391.401 810.797 393.036 829.973 390.442C830.847 390.323 831.46 389.519 831.342 388.645C831.223 387.771 830.419 387.158 829.545 387.276C806.536 390.389 782.618 387.276 769.628 384.149C762.526 379.011 756.359 372.611 751.482 365.239C747.08 358.587 743.729 351.143 741.687 343.12C745.071 345.245 749.106 347.356 753.716 349.289C754.529 349.63 755.465 349.247 755.806 348.433C756.147 347.62 755.764 346.684 754.951 346.343C749.159 343.915 744.357 341.217 740.691 338.62C740.294 336.508 739.985 334.36 739.771 332.18C739.563 330.064 739.447 327.961 739.421 325.874ZM871.461 336.933C872.225 336.491 872.486 335.514 872.044 334.751C871.603 333.987 870.625 333.726 869.862 334.168C829.078 357.759 792.506 357.509 767.323 350.593C766.472 350.359 765.593 350.859 765.359 351.71C765.126 352.561 765.626 353.44 766.477 353.673C792.428 360.8 829.889 360.981 871.461 336.933ZM857.025 363.875C857.868 363.614 858.339 362.72 858.079 361.877C857.818 361.034 856.923 360.563 856.081 360.823C846.11 363.908 836.568 366.155 827.559 367.729C826.69 367.881 826.109 368.708 826.261 369.577C826.413 370.446 827.24 371.027 828.109 370.876C837.249 369.279 846.922 367.001 857.025 363.875ZM790.639 307.754C791.516 307.852 792.306 307.22 792.404 306.344C792.501 305.467 791.87 304.677 790.994 304.579C787.883 304.232 784.82 303.795 781.824 303.287C780.954 303.14 780.129 303.725 779.982 304.595C779.834 305.465 780.42 306.289 781.29 306.437C784.342 306.955 787.465 307.399 790.639 307.754ZM797.229 323.349C798.099 323.366 798.822 322.686 798.858 321.817C798.894 320.948 798.228 320.211 797.36 320.157L785.881 319.453C785.013 319.399 784.262 320.05 784.191 320.917C784.12 321.783 784.755 322.547 785.62 322.636C789.374 323.02 793.251 323.267 797.229 323.349Z" stroke="black" stroke-width="3.19444" stroke-linecap="round" stroke-linejoin="round"/>
<path d="M1035.31 9.33818C1023.67 17.4929 998.522 28.0768 966.312 26.0123M939.147 88.8753C964.714 95.8969 1001.73 96.1119 1042.91 72.2925M911.669 60.6583C930.871 74.6426 983.771 89.5756 1055.8 45.8555M1034.12 8.21782C1022.66 16.1418 998.009 26.4433 966.415 24.4183C965.534 24.3619 964.775 25.0298 964.718 25.9101C964.662 26.7904 965.33 27.5498 966.21 27.6062C999.005 29.7082 1024.64 18.8637 1036.46 10.4784C1038.83 12.8704 1041.04 15.4288 1043.06 18.1369C1035.09 26.5809 1025.71 32.3893 1015.61 36.1866C1014.79 36.4972 1014.37 37.4183 1014.68 38.2439C1014.99 39.0696 1015.91 39.4871 1016.74 39.1765C1027.05 35.2952 1036.71 29.3728 1044.95 20.7846C1047.21 24.104 1049.21 27.6261 1050.91 31.3238C1037.27 41.1717 1023.35 47.6412 1009.79 51.6133C1008.94 51.8612 1008.45 52.7484 1008.7 53.595C1008.95 54.4415 1009.84 54.9269 1010.68 54.6791C1024.4 50.6635 1038.44 44.1614 1052.2 34.3252C1053.5 37.5095 1054.57 40.8129 1055.41 44.2193C982.424 88.7224 929.527 72.4201 911.723 58.7033C911.916 53.9729 912.567 49.3415 913.636 44.8572C914.612 40.7624 915.937 36.7897 917.58 32.976C923.16 35.3113 930.014 37.6892 937.697 39.7328C938.55 39.9595 939.425 39.4523 939.651 38.5998C939.878 37.7473 939.371 36.8724 938.518 36.6457C931.011 34.6488 924.329 32.3322 918.909 30.0691C920.854 26.0492 923.16 22.2249 925.789 18.6425C935.739 22.4483 945.363 24.9138 954.534 26.3305C955.406 26.4651 956.222 25.8676 956.357 24.9958C956.491 24.124 955.894 23.3081 955.022 23.1735C946.346 21.8333 937.243 19.5297 927.824 15.9975C931.437 11.5164 935.577 7.46143 940.16 3.93276C951.226 7.02033 973.865 9.92983 996.728 4.12827C997.583 3.91131 998.1 3.04229 997.883 2.18727C997.666 1.33225 996.797 0.814995 995.942 1.03196C975.332 6.2617 954.859 4.19214 943.515 1.49816C953.294 -5.18117 964.842 -9.56848 977.463 -10.8106C990.124 -12.0567 1002.34 -9.9876 1013.26 -5.31121C1011.5 -4.43641 1009.71 -3.63317 1007.92 -2.89696C1007.1 -2.56267 1006.71 -1.62992 1007.04 -0.813588C1007.38 0.00273939 1008.31 0.393511 1009.13 0.0592249C1011.76 -1.0199 1014.37 -2.23938 1016.94 -3.61304C1023.22 -0.503623 1029 3.48864 1034.12 8.21782ZM911.668 62.616C932.155 76.7944 985.037 90.4691 1056.14 47.5119C1056.15 47.5337 1056.15 47.5555 1056.16 47.5774C1056.61 49.8877 1056.96 52.2416 1057.2 54.6344C1057.4 56.7504 1057.52 58.8538 1057.55 60.9406C1054.78 62.9164 1052.03 64.7778 1049.3 66.5299C1048.55 67.0058 1048.34 67.9937 1048.81 68.7364C1049.29 69.4791 1050.28 69.6954 1051.02 69.2195C1053.17 67.843 1055.32 66.4008 1057.49 64.8905C1057.13 73.4613 1055.28 81.7073 1052.15 89.3421C1048.79 97.5635 1043.96 105.077 1037.95 111.523C1030.51 116.545 1021.73 119.93 1012.42 122.089C1011.56 122.288 1011.03 123.146 1011.23 124.005C1011.43 124.865 1012.29 125.4 1013.15 125.201C1018.21 124.026 1023.17 122.489 1027.87 120.518C1017.64 128.063 1005.32 133.033 991.751 134.368C976.531 135.866 961.947 132.573 949.49 125.717C963.313 128.143 983.044 129.778 1002.22 127.184C1003.09 127.066 1003.71 126.261 1003.59 125.387C1003.47 124.513 1002.67 123.9 1001.79 124.018C978.783 127.131 954.865 124.018 941.875 120.891C934.773 115.753 928.606 109.353 923.729 101.982C919.328 95.3289 915.976 87.8849 913.934 79.8619C917.318 81.9872 921.353 84.0987 925.963 86.031C926.776 86.372 927.712 85.9889 928.053 85.1754C928.394 84.3618 928.011 83.4259 927.198 83.0849C921.406 80.6575 916.605 77.959 912.939 75.3618C912.541 73.25 912.233 71.1025 912.018 68.9226C911.81 66.8065 911.694 64.7029 911.668 62.616ZM1043.71 73.6751C1044.47 73.2334 1044.73 72.2563 1044.29 71.4927C1043.85 70.7292 1042.87 70.4682 1042.11 70.9099C1001.33 94.5011 964.753 94.2512 939.57 87.3351C938.719 87.1015 937.84 87.6017 937.606 88.4523C937.373 89.3029 937.873 90.1819 938.724 90.4155C964.675 97.5426 1002.14 97.7227 1043.71 73.6751ZM1029.27 100.617C1030.11 100.356 1030.59 99.462 1030.33 98.6193C1030.07 97.7766 1029.17 97.3048 1028.33 97.5655C1018.36 100.65 1008.82 102.897 999.806 104.471C998.937 104.623 998.356 105.45 998.508 106.319C998.66 107.188 999.487 107.77 1000.36 107.618C1009.5 106.021 1019.17 103.743 1029.27 100.617ZM962.886 44.4959C963.763 44.5938 964.553 43.9625 964.651 43.0859C964.749 42.2092 964.117 41.4191 963.241 41.3212C960.13 40.9738 957.067 40.5376 954.071 40.0295C953.201 39.882 952.377 40.4674 952.229 41.3371C952.081 42.2068 952.667 43.0314 953.537 43.1789C956.589 43.6967 959.713 44.1414 962.886 44.4959ZM969.477 60.0907C970.346 60.1085 971.07 59.4278 971.105 58.5591C971.141 57.6904 970.475 56.9529 969.607 56.8996L958.128 56.195C957.26 56.1417 956.509 56.7924 956.438 57.6589C956.367 58.5255 957.002 59.2896 957.867 59.3781C961.621 59.7621 965.498 60.0093 969.477 60.0907Z" stroke="black" stroke-width="3.19444" stroke-linecap="round" stroke-linejoin="round"/>
<path d="M882.255 217.772C882.324 218.475 882.298 219.164 882.176 219.838C882.061 220.504 881.865 221.14 881.591 221.745C881.315 222.343 880.966 222.9 880.543 223.415C880.12 223.931 879.642 224.385 879.11 224.779C878.577 225.166 877.991 225.481 877.353 225.725C876.716 225.976 876.046 226.136 875.342 226.205C874.639 226.274 873.95 226.248 873.276 226.126C872.61 226.011 871.974 225.816 871.369 225.541C870.77 225.258 870.213 224.906 869.698 224.483C869.182 224.06 868.728 223.582 868.334 223.05C867.947 222.51 867.628 221.925 867.378 221.294C867.134 220.657 866.977 219.986 866.908 219.282C866.839 218.579 866.861 217.89 866.976 217.217C867.098 216.543 867.297 215.907 867.572 215.309C867.855 214.71 868.207 214.153 868.63 213.638C869.053 213.122 869.531 212.671 870.064 212.284C870.604 211.897 871.19 211.581 871.821 211.338C872.458 211.087 873.128 210.927 873.832 210.858C874.536 210.789 875.224 210.815 875.898 210.937C876.571 211.052 877.207 211.247 877.805 211.522C878.403 211.798 878.96 212.147 879.476 212.57C879.991 212.993 880.442 213.471 880.829 214.004C881.216 214.537 881.531 215.123 881.775 215.761C882.026 216.398 882.186 217.068 882.255 217.772ZM879.306 218.062C879.242 217.414 879.057 216.815 878.753 216.267C878.447 215.712 878.06 215.245 877.591 214.866C877.128 214.48 876.594 214.191 875.991 214C875.393 213.808 874.771 213.744 874.122 213.808C873.467 213.872 872.865 214.057 872.317 214.361C871.769 214.666 871.302 215.053 870.916 215.523C870.53 215.986 870.241 216.52 870.05 217.124C869.858 217.721 869.793 218.343 869.857 218.992C869.921 219.64 870.105 220.239 870.41 220.787C870.714 221.328 871.101 221.792 871.571 222.177C872.041 222.563 872.574 222.852 873.171 223.044C873.768 223.236 874.395 223.3 875.05 223.235C875.699 223.171 876.297 222.987 876.845 222.682C877.4 222.377 877.867 221.99 878.246 221.52C878.631 221.051 878.921 220.521 879.113 219.93C879.305 219.333 879.369 218.711 879.306 218.062ZM894.632 223.983L891.175 224.323L888.637 221.146L886.746 224.759L883.289 225.099L886.777 219.019L882.193 213.954L885.649 213.613L888.187 216.572L890.078 213.178L893.535 212.837L890.016 218.701L894.632 223.983ZM898.731 227.842L898.451 224.997L900.026 224.862C900.302 224.835 900.563 224.764 900.81 224.65C901.056 224.535 901.279 224.387 901.477 224.208C901.682 224.027 901.856 223.819 902 223.582C902.145 223.351 902.256 223.104 902.335 222.838C902.037 223 901.733 223.162 901.421 223.325C901.117 223.487 900.802 223.584 900.478 223.616C899.795 223.684 899.142 223.626 898.518 223.444C897.894 223.261 897.332 222.972 896.834 222.575C896.341 222.171 895.932 221.664 895.608 221.055C895.289 220.439 895.091 219.734 895.013 218.94L894.41 212.814L897.225 212.537L897.828 218.663C897.866 219.057 897.956 219.396 898.095 219.682C898.241 219.96 898.42 220.19 898.633 220.371C898.845 220.545 899.084 220.668 899.349 220.739C899.62 220.81 899.904 220.831 900.201 220.802C900.491 220.773 900.757 220.681 900.999 220.524C901.248 220.361 901.458 220.159 901.629 219.919C901.801 219.679 901.928 219.416 902.011 219.129C902.094 218.835 902.121 218.54 902.091 218.244L901.488 212.117L904.334 211.837L905.288 221.523C905.357 222.304 905.278 223.05 905.048 223.762C904.819 224.474 904.47 225.111 904.003 225.673C903.543 226.233 902.986 226.696 902.332 227.06C901.678 227.424 900.962 227.644 900.182 227.721L898.731 227.842ZM914.919 216.292C914.88 215.905 914.768 215.54 914.581 215.196C914.4 214.845 914.168 214.544 913.886 214.293C913.603 214.035 913.281 213.841 912.919 213.709C912.564 213.57 912.194 213.519 911.807 213.557C911.421 213.595 911.062 213.697 910.73 213.862C910.405 214.026 910.127 214.248 909.897 214.529C909.674 214.809 909.508 215.145 909.401 215.539C909.292 215.926 909.262 216.361 909.31 216.844C909.355 217.306 909.469 217.716 909.65 218.074C909.831 218.426 910.059 218.72 910.333 218.958C910.614 219.195 910.93 219.369 911.283 219.481C911.641 219.585 912.014 219.618 912.4 219.58C912.786 219.542 913.14 219.424 913.462 219.225C913.79 219.018 914.068 218.765 914.296 218.463C914.524 218.156 914.692 217.815 914.802 217.442C914.918 217.061 914.957 216.678 914.919 216.292ZM918.182 220.254C918.259 221.034 918.182 221.78 917.953 222.492C917.723 223.204 917.375 223.841 916.908 224.403C916.448 224.963 915.887 225.426 915.226 225.791C914.573 226.154 913.856 226.375 913.076 226.452L911.657 226.57L911.379 223.745L912.778 223.628C913.219 223.585 913.589 223.489 913.888 223.341C914.188 223.201 914.435 223.019 914.629 222.798C914.824 222.584 914.971 222.343 915.07 222.076C915.176 221.808 915.253 221.528 915.301 221.238C915.208 221.428 915.064 221.592 914.869 221.73C914.672 221.861 914.45 221.973 914.202 222.067C913.961 222.168 913.704 222.245 913.431 222.3C913.164 222.354 912.914 222.392 912.679 222.416C911.9 222.492 911.152 222.43 910.435 222.229C909.726 222.027 909.088 221.703 908.521 221.257C907.961 220.804 907.497 220.23 907.129 219.535C906.761 218.839 906.533 218.036 906.443 217.126C906.361 216.291 906.433 215.5 906.659 214.754C906.885 214.007 907.227 213.346 907.686 212.772C908.152 212.196 908.712 211.727 909.366 211.363C910.026 210.998 910.747 210.778 911.526 210.701C911.885 210.666 912.245 210.676 912.605 210.731C912.966 210.786 913.32 210.876 913.667 211.002C914.013 211.128 914.346 211.284 914.663 211.468C914.988 211.652 915.293 211.856 915.58 212.078L916.548 210.656L917.231 210.589L918.182 220.254ZM924.624 218.293C924.738 218.317 924.85 218.33 924.962 218.333C925.073 218.329 925.184 218.322 925.294 218.311C925.57 218.284 925.832 218.22 926.08 218.119C926.328 218.018 926.555 217.887 926.763 217.728C926.976 217.56 927.159 217.368 927.312 217.151C927.471 216.927 927.593 216.685 927.679 216.425L929.954 218.302C929.728 218.7 929.458 219.065 929.142 219.395C928.833 219.725 928.489 220.013 928.109 220.26C927.736 220.505 927.334 220.702 926.902 220.849C926.479 221.002 926.036 221.101 925.573 221.147C924.794 221.223 924.045 221.151 923.326 220.929C922.615 220.706 921.975 220.362 921.407 219.895C920.845 219.428 920.381 218.854 920.015 218.172C919.647 217.484 919.422 216.712 919.337 215.857C919.251 214.981 919.321 214.166 919.546 213.412C919.771 212.658 920.114 212.001 920.575 211.44C921.042 210.879 921.603 210.423 922.258 210.073C922.92 209.722 923.641 209.509 924.421 209.432C924.883 209.386 925.34 209.397 925.793 209.464C926.245 209.531 926.678 209.649 927.092 209.817C927.512 209.984 927.91 210.203 928.285 210.473C928.659 210.735 928.995 211.04 929.294 211.387L924.624 218.293ZM925.499 212.325C925.364 212.289 925.229 212.271 925.097 212.27C924.971 212.269 924.84 212.275 924.702 212.288C924.315 212.326 923.957 212.435 923.626 212.613C923.302 212.785 923.025 213.014 922.795 213.301C922.573 213.588 922.407 213.925 922.299 214.311C922.19 214.691 922.158 215.112 922.204 215.575C922.214 215.678 922.229 215.795 922.249 215.925C922.276 216.055 922.306 216.188 922.34 216.324C922.381 216.452 922.424 216.577 922.471 216.698C922.518 216.818 922.574 216.924 922.638 217.016L925.499 212.325ZM934.443 220.065L931.617 220.343L930.527 209.259L931.21 209.192L932.247 210.177C932.661 209.718 933.144 209.35 933.695 209.073C934.252 208.788 934.845 208.615 935.473 208.553C936.149 208.487 936.8 208.555 937.426 208.758C938.051 208.954 938.61 209.258 939.104 209.669C939.596 210.073 940 210.567 940.315 211.149C940.636 211.723 940.83 212.352 940.898 213.035L941.521 219.368L938.696 219.646L938.072 213.313C938.044 213.023 937.962 212.756 937.826 212.512C937.69 212.26 937.516 212.047 937.304 211.873C937.092 211.699 936.853 211.569 936.586 211.484C936.32 211.399 936.042 211.371 935.753 211.399C935.456 211.428 935.182 211.511 934.931 211.647C934.679 211.783 934.467 211.958 934.292 212.17C934.118 212.382 933.989 212.624 933.904 212.898C933.819 213.164 933.791 213.442 933.819 213.731L934.443 220.065Z" fill="#2662E7"/>
<path d="M919.025 168.677C919.199 170.437 919.133 172.158 918.828 173.843C918.54 175.508 918.052 177.097 917.365 178.61C916.676 180.106 915.803 181.498 914.746 182.787C913.688 184.075 912.494 185.211 911.163 186.195C909.83 187.163 908.366 187.951 906.772 188.561C905.179 189.188 903.503 189.588 901.744 189.761C899.985 189.934 898.263 189.868 896.579 189.564C894.913 189.275 893.324 188.787 891.811 188.1C890.313 187.394 888.921 186.512 887.632 185.455C886.344 184.398 885.208 183.203 884.223 181.872C883.255 180.522 882.458 179.059 881.832 177.484C881.223 175.89 880.831 174.213 880.658 172.453C880.485 170.694 880.542 168.973 880.829 167.291C881.134 165.606 881.63 164.016 882.319 162.52C883.025 161.023 883.906 159.63 884.964 158.342C886.021 157.053 887.216 155.926 888.549 154.959C889.899 153.99 891.363 153.202 892.94 152.594C894.533 151.967 896.209 151.567 897.968 151.393C899.727 151.22 901.449 151.286 903.133 151.59C904.816 151.877 906.405 152.365 907.901 153.054C909.397 153.743 910.789 154.616 912.077 155.673C913.365 156.731 914.493 157.926 915.46 159.259C916.427 160.591 917.216 162.055 917.825 163.649C918.452 165.242 918.852 166.918 919.025 168.677ZM911.652 169.403C911.492 167.782 911.032 166.286 910.27 164.915C909.506 163.528 908.538 162.361 907.365 161.414C906.208 160.448 904.874 159.726 903.364 159.247C901.872 158.767 900.315 158.607 898.694 158.767C897.055 158.928 895.551 159.39 894.18 160.151C892.81 160.913 891.642 161.881 890.678 163.056C889.712 164.213 888.99 165.547 888.512 167.057C888.032 168.55 887.872 170.106 888.031 171.728C888.191 173.349 888.652 174.845 889.413 176.215C890.174 177.569 891.141 178.727 892.316 179.691C893.49 180.655 894.824 181.377 896.316 181.858C897.809 182.338 899.375 182.497 901.013 182.336C902.634 182.176 904.13 181.715 905.501 180.954C906.888 180.19 908.056 179.222 909.003 178.049C909.967 176.874 910.69 175.549 911.171 174.074C911.651 172.581 911.812 171.024 911.652 169.403Z" fill="black"/>
<path d="M800.303 100.396C800.366 101.038 800.279 101.645 800.041 102.217C799.803 102.789 799.448 103.298 798.977 103.746C798.513 104.186 797.953 104.549 797.299 104.834C796.646 105.126 795.935 105.309 795.167 105.385C794.398 105.461 793.665 105.419 792.968 105.26C792.27 105.108 791.648 104.862 791.099 104.521C790.557 104.173 790.113 103.742 789.768 103.228C789.423 102.714 789.219 102.135 789.156 101.493C789.12 101.122 789.134 100.756 789.199 100.395C789.263 100.028 789.372 99.6792 789.527 99.3497C789.688 99.0195 789.889 98.7122 790.128 98.4278C790.367 98.1368 790.643 97.8823 790.956 97.6643C790.733 97.5057 790.527 97.3186 790.339 97.1031C790.157 96.8869 789.994 96.6556 789.849 96.409C789.711 96.1618 789.599 95.9053 789.513 95.6396C789.426 95.3673 789.369 95.0954 789.342 94.8239C789.288 94.2675 789.359 93.7355 789.556 93.2279C789.76 92.7131 790.059 92.2523 790.454 91.8457C790.848 91.4324 791.322 91.0915 791.878 90.8228C792.433 90.5542 793.035 90.3879 793.684 90.324C794.34 90.2595 794.966 90.3048 795.563 90.4601C796.16 90.6153 796.692 90.8572 797.159 91.1857C797.632 91.5069 798.016 91.9006 798.309 92.3665C798.608 92.8253 798.785 93.3328 798.84 93.8891C798.867 94.1607 798.861 94.4388 798.822 94.7235C798.789 95.0009 798.729 95.2776 798.643 95.5536C798.555 95.823 798.44 96.0817 798.298 96.3298C798.162 96.5773 798 96.8038 797.813 97.0095C798.156 97.163 798.472 97.3559 798.763 97.5881C799.053 97.8203 799.306 98.083 799.522 98.376C799.738 98.669 799.913 98.9862 800.047 99.3274C800.181 99.6687 800.266 100.025 800.303 100.396ZM796.079 94.4719C796.056 94.24 795.982 94.03 795.856 93.8417C795.737 93.6462 795.58 93.4811 795.386 93.3463C795.199 93.211 794.982 93.1119 794.735 93.0493C794.488 92.9867 794.232 92.9684 793.967 92.9945C793.696 93.0212 793.445 93.0893 793.215 93.1989C792.985 93.3085 792.788 93.4482 792.624 93.6182C792.467 93.7874 792.345 93.9799 792.26 94.1957C792.18 94.4042 792.151 94.6243 792.174 94.8561C792.197 95.0879 792.268 95.2983 792.387 95.4872C792.512 95.6755 792.668 95.834 792.855 95.9627C793.048 96.0908 793.268 96.1862 793.515 96.2488C793.762 96.3115 794.021 96.3294 794.293 96.3027C794.558 96.2766 794.805 96.2088 795.035 96.0992C795.265 95.9897 795.459 95.8536 795.617 95.6909C795.781 95.5276 795.903 95.3417 795.983 95.1332C796.07 94.9241 796.101 94.7037 796.079 94.4719ZM797.464 100.595C797.432 100.277 797.33 99.9893 797.158 99.7321C796.992 99.4677 796.772 99.2451 796.5 99.0646C796.235 98.8834 795.928 98.7498 795.578 98.6638C795.235 98.5772 794.875 98.5525 794.498 98.5896C794.12 98.6268 793.772 98.7213 793.452 98.8731C793.133 99.0249 792.857 99.2158 792.626 99.4459C792.401 99.6753 792.23 99.9363 792.111 100.229C791.999 100.514 791.958 100.816 791.99 101.134C792.021 101.451 792.119 101.736 792.284 101.987C792.456 102.238 792.674 102.447 792.938 102.615C793.208 102.782 793.515 102.906 793.857 102.986C794.199 103.059 794.558 103.078 794.936 103.04C795.313 103.003 795.662 102.915 795.983 102.777C796.31 102.631 796.586 102.45 796.812 102.234C797.045 102.017 797.218 101.769 797.331 101.491C797.451 101.211 797.495 100.913 797.464 100.595Z" fill="black"/>
</g>
<defs>
<clipPath id="clip0_220_63">
<rect x="1309" y="722.534" width="200" height="200" rx="7.40741" transform="rotate(-14.0444 1309 722.534)" fill="white"/>
</clipPath>
<clipPath id="clip1_220_63">
<rect x="372.95" y="651" width="210" height="210" rx="7.77778" transform="rotate(8.19936 372.95 651)" fill="white"/>
</clipPath>
<clipPath id="clip2_220_63">
<rect x="1603.44" y="170" width="300" height="300" rx="11.1111" transform="rotate(18.3485 1603.44 170)" fill="white"/>
</clipPath>
<clipPath id="clip3_220_63">
<rect x="47" y="237.309" width="250" height="250" rx="9.25926" transform="rotate(-15.6188 47 237.309)" fill="white"/>
</clipPath>
<clipPath id="clip4_220_63">
<rect x="776" y="79.5273" width="230" height="230" rx="8.51852" transform="rotate(-5.62085 776 79.5273)" fill="white"/>
</clipPath>
</defs>
</svg>
